# Wavefront Obj file
# 
# verts: 688 uv-s: 973
mtllib export3dcoat.mtl

g Object031

v 16.759300 42.101299 -8.259700
v 22.494101 42.101299 -8.259700
v 22.494101 42.101299 -21.283501
v 16.759300 42.101299 -21.283501
v 16.759300 32.726501 -8.259700
v 22.494101 32.726501 -8.259700
v 22.494101 32.726501 -21.283501
v 16.759300 32.726501 -21.283501
v 16.983200 42.716702 -13.084000
v 22.270100 42.716702 -13.084000
v 22.270100 42.716702 -16.459200
v 16.983200 42.716702 -16.459200
v 16.382799 42.066399 -13.084000
v 16.382799 32.761299 -13.084000
v 16.983200 32.111099 -13.084000
v 22.270100 32.111099 -13.084000
v 22.870501 32.761299 -13.084000
v 22.870501 42.066399 -13.084000
v 22.870501 32.761299 -16.459200
v 22.870501 42.066399 -16.459200
v 22.270100 32.111099 -16.459200
v 16.983200 32.111099 -16.459200
v 16.382799 32.761299 -16.459200
v 16.382799 42.066399 -16.459200
v 24.111900 33.798199 10.438000
v 24.111500 33.798199 -3.333300
v 21.085600 43.058498 -3.333200
v 21.086100 43.058498 10.438100
v 18.160000 30.754900 10.438200
v 18.159500 30.754900 -3.333100
v 23.443199 32.481300 -3.333300
v 23.443600 32.481300 10.438000
v 17.835199 31.747400 -4.377400
v 14.809300 41.007702 -4.377300
v 20.093000 42.734200 -4.377400
v 23.118799 33.473900 -4.377500
v 14.485000 42.000301 -3.333000
v 14.485500 42.000301 10.438300
v 19.769199 43.726799 10.438100
v 19.768700 43.726799 -3.333200
v 14.809900 41.007702 11.482500
v 17.835699 31.747400 11.482400
v 23.119400 33.473900 11.482300
v 20.093500 42.734200 11.482400
v 16.843000 31.423100 10.438200
v 16.842600 31.423100 -3.333100
v 13.817200 40.683399 10.438300
v 13.816800 40.683399 -3.333000
v 13.495200 41.355000 -10.592400
v 16.382799 41.355000 -10.592400
v 16.382799 41.355000 -18.950800
v 13.495200 41.355000 -18.950800
v 16.382799 30.736000 -10.592400
v 16.382799 30.736000 -18.950800
v 16.382799 41.355000 -16.459200
v 16.382799 41.355000 -13.084000
v 34.427601 4.147700 -19.040100
v 34.427601 2.861100 -13.403100
v 30.959801 0.002600 -13.412200
v 30.959801 1.561400 -20.241699
v 34.427601 7.752700 -23.560600
v 30.959801 5.929000 -25.718500
v 34.427601 12.962100 -26.069300
v 30.959801 12.240400 -28.757900
v 34.427601 18.743999 -26.069300
v 30.959801 19.245501 -28.757900
v 34.427601 23.953400 -23.560600
v 30.959900 25.556900 -25.718500
v 34.427601 27.558300 -19.040100
v 30.959801 29.924500 -20.241699
v 34.427601 28.844900 -13.403100
v 30.959801 31.483299 -13.412200
v 34.427601 27.558300 -7.766100
v 30.959801 29.924500 -6.582700
v 34.427601 23.953400 -3.245600
v 30.959900 25.556900 -1.105900
v 34.427601 18.743999 -0.736900
v 30.959801 19.245501 1.933500
v 34.427601 12.962100 -0.736900
v 30.959801 12.240400 1.933500
v 34.427601 7.752700 -3.245600
v 30.959801 5.929000 -1.105900
v 34.427601 4.147700 -7.766100
v 30.959801 1.561400 -6.582700
v 35.284199 6.382200 -16.507900
v 35.284199 6.366000 -10.348100
v 35.284199 10.015900 -21.481701
v 35.284199 15.879200 -23.369801
v 35.284199 21.732500 -21.451000
v 35.284199 25.340099 -16.458099
v 35.284199 25.323900 -10.298300
v 35.284199 21.690201 -5.324400
v 35.284199 15.826900 -3.436300
v 35.284199 9.973500 -5.355200
v 26.717199 15.798000 -13.407600
v 36.820099 13.117100 -14.957100
v 34.757099 12.725000 -15.183400
v 34.757099 15.745600 -16.927401
v 36.820099 15.745600 -16.474600
v 36.820099 13.117100 -11.922000
v 34.757099 12.725000 -11.695600
v 36.820099 15.745600 -10.404500
v 34.757099 15.745600 -9.951700
v 36.820099 18.374001 -11.922000
v 34.757099 18.766100 -11.695600
v 36.820099 18.374001 -14.957100
v 34.757099 18.766100 -15.183400
v 34.137600 6.223600 -18.902901
v 34.137600 15.783700 -24.401699
v 35.219898 15.745600 -13.439500
v 34.137600 25.262199 -7.922200
v 34.137600 15.707500 -2.423400
v 34.137600 25.257401 -18.911301
v 34.137600 6.228500 -7.913800
v 21.465900 0.002600 -13.412200
v 21.465900 1.561400 -20.241699
v 21.465900 5.929000 -25.718500
v 21.465900 12.240400 -28.757900
v 21.465900 19.245501 -28.757900
v 21.465900 29.924500 -20.241699
v 21.465900 31.483299 -13.412200
v 21.465900 29.924500 -6.582700
v 21.465900 25.556900 -1.105900
v 17.998100 4.147700 -19.040100
v 17.998100 2.861100 -13.403100
v 17.998100 7.752700 -23.560600
v 17.998100 12.962100 -26.069300
v 17.998100 18.743999 -26.069300
v 17.998199 23.953400 -23.560600
v 21.465900 25.556900 -25.718500
v 17.998100 27.558300 -19.040100
v 17.998100 28.844900 -13.403100
v 17.998100 27.558300 -7.766100
v 17.998199 23.953400 -3.245600
v 17.998100 18.743999 -0.736900
v 21.465900 19.245501 1.933500
v 17.998100 12.962100 -0.736900
v 21.465900 12.240400 1.933500
v 17.998100 7.752700 -3.245600
v 21.465900 5.929000 -1.105900
v 17.998100 4.147700 -7.766100
v 21.465900 1.561400 -6.582700
v 34.427601 4.145100 13.609600
v 34.427601 2.858500 19.246599
v 30.959801 0.000000 19.237400
v 30.959801 1.558800 12.408000
v 34.427601 7.750100 9.089100
v 30.959801 5.926400 6.931200
v 34.427601 12.959400 6.580400
v 30.959801 12.237800 3.891800
v 34.427601 18.741400 6.580400
v 30.959801 19.242901 3.891800
v 34.427601 23.950701 9.089100
v 30.959900 25.554199 6.931200
v 34.427601 27.555700 13.609600
v 30.959801 29.921900 12.408000
v 34.427601 28.842300 19.246599
v 30.959801 31.480600 19.237400
v 34.427601 27.555700 24.883499
v 30.959801 29.921900 26.066900
v 34.427601 23.950701 29.403999
v 30.959900 25.554199 31.543699
v 34.427601 18.741400 31.912701
v 30.959801 19.242901 34.583099
v 34.427601 12.959400 31.912701
v 30.959801 12.237800 34.583099
v 34.427601 7.750100 29.403999
v 30.959801 5.926400 31.543699
v 34.427601 4.145100 24.883499
v 30.959801 1.558800 26.066900
v 35.284199 6.379500 16.141800
v 35.284199 6.363300 22.301600
v 35.284199 10.013200 11.167900
v 35.284199 15.876600 9.279800
v 35.284199 21.729900 11.198700
v 35.284199 25.337400 16.191601
v 35.284199 25.321301 22.351400
v 35.284199 21.687500 27.325199
v 35.284199 15.824200 29.213301
v 35.284199 9.970900 27.294500
v 26.717199 15.795400 19.242001
v 36.820099 13.114500 17.692600
v 34.757099 12.722400 17.466200
v 34.757099 15.743000 15.722300
v 36.820099 15.743000 16.174999
v 36.820099 13.114500 20.727600
v 34.757099 12.722400 20.954000
v 36.820099 15.743000 22.245199
v 34.757099 15.743000 22.697901
v 36.820099 18.371401 20.727600
v 34.757099 18.763500 20.954000
v 36.820099 18.371401 17.692600
v 34.757099 18.763500 17.466200
v 34.137600 6.221000 13.746700
v 34.137600 15.781100 8.248000
v 35.219898 15.743000 19.210100
v 34.137600 25.259600 24.727501
v 34.137600 15.704800 30.226299
v 34.137600 25.254700 13.738300
v 34.137600 6.225800 24.735901
v 21.465900 0.000000 19.237400
v 21.465900 1.558800 12.408000
v 21.465900 5.926400 6.931200
v 21.465900 12.237800 3.891800
v 21.465900 19.242901 3.891800
v 21.465900 29.921900 12.408000
v 21.465900 31.480600 19.237400
v 21.465900 29.921900 26.066900
v 21.465900 25.554199 31.543699
v 17.998100 4.145100 13.609600
v 17.998100 2.858500 19.246599
v 17.998100 7.750100 9.089100
v 17.998100 12.959400 6.580400
v 17.998100 18.741400 6.580400
v 17.998199 23.950701 9.089100
v 21.465900 25.554199 6.931200
v 17.998100 27.555700 13.609600
v 17.998100 28.842300 19.246599
v 17.998100 27.555700 24.883499
v 17.998199 23.950701 29.403999
v 17.998100 18.741400 31.912701
v 21.465900 19.242901 34.583099
v 17.998100 12.959400 31.912701
v 21.465900 12.237800 34.583099
v 17.998100 7.750100 29.403999
v 21.465900 5.926400 31.543699
v 17.998100 4.145100 24.883499
v 21.465900 1.558800 26.066900
v -34.427601 4.147700 -19.040100
v -30.959801 1.561400 -20.241699
v -30.959801 0.002600 -13.412200
v -34.427601 2.861100 -13.403100
v -34.427601 7.752700 -23.560600
v -30.959801 5.929000 -25.718500
v -34.427601 12.962100 -26.069300
v -30.959801 12.240400 -28.757900
v -34.427601 18.743999 -26.069300
v -30.959801 19.245501 -28.757900
v -34.427601 23.953400 -23.560600
v -30.959900 25.556900 -25.718500
v -34.427601 27.558300 -19.040100
v -30.959801 29.924500 -20.241699
v -34.427601 28.844900 -13.403100
v -30.959801 31.483299 -13.412200
v -34.427601 27.558300 -7.766100
v -30.959801 29.924500 -6.582700
v -34.427601 23.953400 -3.245600
v -30.959900 25.556900 -1.105900
v -34.427601 18.743999 -0.736900
v -30.959801 19.245501 1.933500
v -34.427601 12.962100 -0.736900
v -30.959801 12.240400 1.933500
v -34.427601 7.752700 -3.245600
v -30.959801 5.929000 -1.105900
v -34.427601 4.147700 -7.766100
v -30.959801 1.561400 -6.582700
v -35.284199 6.366000 -10.348100
v -35.284199 6.382200 -16.507900
v -35.284199 10.015900 -21.481701
v -35.284199 15.879200 -23.369801
v -35.284199 21.732500 -21.451000
v -35.284199 25.340099 -16.458099
v -35.284199 25.323900 -10.298300
v -35.284199 21.690201 -5.324400
v -35.284199 15.826900 -3.436300
v -35.284199 9.973500 -5.355200
v -26.717199 15.798000 -13.407600
v -36.820099 13.117100 -14.957100
v -36.820099 15.745600 -16.474600
v -34.757099 15.745600 -16.927401
v -34.757099 12.725000 -15.183400
v -36.820099 13.117100 -11.922000
v -34.757099 12.725000 -11.695600
v -36.820099 15.745600 -10.404500
v -34.757099 15.745600 -9.951700
v -36.820099 18.374001 -11.922000
v -34.757099 18.766100 -11.695600
v -36.820099 18.374001 -14.957100
v -34.757099 18.766100 -15.183400
v -34.137600 6.223600 -18.902901
v -35.219898 15.745600 -13.439500
v -34.137600 15.783700 -24.401699
v -34.137600 25.262199 -7.922200
v -34.137600 15.707500 -2.423400
v -34.137600 25.257401 -18.911301
v -34.137600 6.228500 -7.913800
v -21.465900 1.561400 -20.241699
v -21.465900 0.002600 -13.412200
v -21.465900 5.929000 -25.718500
v -21.465900 19.245501 -28.757900
v -21.465900 12.240400 -28.757900
v -21.465900 31.483299 -13.412200
v -21.465900 29.924500 -20.241699
v -21.465900 29.924500 -6.582700
v -21.465900 25.556900 -1.105900
v -17.998100 4.147700 -19.040100
v -17.998100 2.861100 -13.403100
v -17.998100 7.752700 -23.560600
v -17.998100 12.962100 -26.069300
v -17.998100 18.743999 -26.069300
v -17.998199 23.953400 -23.560600
v -21.465900 25.556900 -25.718500
v -17.998100 27.558300 -19.040100
v -17.998100 28.844900 -13.403100
v -17.998100 27.558300 -7.766100
v -17.998199 23.953400 -3.245600
v -17.998100 18.743999 -0.736900
v -21.465900 19.245501 1.933500
v -17.998100 12.962100 -0.736900
v -21.465900 12.240400 1.933500
v -17.998100 7.752700 -3.245600
v -21.465900 5.929000 -1.105900
v -17.998100 4.147700 -7.766100
v -21.465900 1.561400 -6.582700
v -34.427601 4.145100 13.609600
v -30.959801 1.558800 12.408000
v -30.959801 0.000000 19.237400
v -34.427601 2.858500 19.246599
v -34.427601 7.750100 9.089100
v -30.959801 5.926400 6.931200
v -34.427601 12.959400 6.580400
v -30.959801 12.237800 3.891800
v -34.427601 18.741400 6.580400
v -30.959801 19.242901 3.891800
v -34.427601 23.950701 9.089100
v -30.959900 25.554199 6.931200
v -34.427601 27.555700 13.609600
v -30.959801 29.921900 12.408000
v -34.427601 28.842300 19.246599
v -30.959801 31.480600 19.237400
v -34.427601 27.555700 24.883499
v -30.959801 29.921900 26.066900
v -34.427601 23.950701 29.403999
v -30.959900 25.554199 31.543699
v -34.427601 18.741400 31.912701
v -30.959801 19.242901 34.583099
v -34.427601 12.959400 31.912701
v -30.959801 12.237800 34.583099
v -34.427601 7.750100 29.403999
v -30.959801 5.926400 31.543699
v -34.427601 4.145100 24.883499
v -30.959801 1.558800 26.066900
v -35.284199 6.363300 22.301600
v -35.284199 6.379500 16.141800
v -35.284199 10.013200 11.167900
v -35.284199 15.876600 9.279800
v -35.284199 21.729900 11.198700
v -35.284199 25.337400 16.191601
v -35.284199 25.321301 22.351400
v -35.284199 21.687500 27.325199
v -35.284199 15.824200 29.213301
v -35.284199 9.970900 27.294500
v -26.717199 15.795400 19.242001
v -36.820099 13.114500 17.692600
v -36.820099 15.743000 16.174999
v -34.757099 15.743000 15.722300
v -34.757099 12.722400 17.466200
v -36.820099 13.114500 20.727600
v -34.757099 12.722400 20.954000
v -36.820099 15.743000 22.245199
v -34.757099 15.743000 22.697901
v -36.820099 18.371401 20.727600
v -34.757099 18.763500 20.954000
v -36.820099 18.371401 17.692600
v -34.757099 18.763500 17.466200
v -34.137600 6.221000 13.746700
v -35.219898 15.743000 19.210100
v -34.137600 15.781100 8.248000
v -34.137600 25.259600 24.727501
v -34.137600 15.704800 30.226299
v -34.137600 25.254700 13.738300
v -34.137600 6.225800 24.735901
v -21.465900 1.558800 12.408000
v -21.465900 0.000000 19.237400
v -21.465900 5.926400 6.931200
v -21.465900 19.242901 3.891800
v -21.465900 12.237800 3.891800
v -21.465900 31.480600 19.237400
v -21.465900 29.921900 12.408000
v -21.465900 29.921900 26.066900
v -21.465900 25.554199 31.543699
v -17.998100 4.145100 13.609600
v -17.998100 2.858500 19.246599
v -17.998100 7.750100 9.089100
v -17.998100 12.959400 6.580400
v -17.998100 18.741400 6.580400
v -17.998199 23.950701 9.089100
v -21.465900 25.554199 6.931200
v -17.998100 27.555700 13.609600
v -17.998100 28.842300 19.246599
v -17.998100 27.555700 24.883499
v -17.998199 23.950701 29.403999
v -17.998100 18.741400 31.912701
v -21.465900 19.242901 34.583099
v -17.998100 12.959400 31.912701
v -21.465900 12.237800 34.583099
v -17.998100 7.750100 29.403999
v -21.465900 5.926400 31.543699
v -17.998100 4.145100 24.883499
v -21.465900 1.558800 26.066900
v 17.998100 15.743000 15.955900
v 17.998100 12.488800 19.210100
v -17.970200 12.488800 19.210100
v -17.970200 15.743000 15.955900
v 17.998199 15.743000 22.464300
v -17.970200 15.743000 22.464300
v 17.998100 18.997200 19.210100
v -17.970200 18.997200 19.210100
v 13.044300 43.050999 -21.552900
v 17.916201 28.135201 -34.877201
v -17.888300 28.135201 -34.877201
v -13.016400 43.050999 -21.552900
v 13.044300 43.050999 23.897499
v 17.916201 28.146700 37.244701
v -13.016400 43.050999 23.897499
v -17.888300 28.146700 37.244701
v -15.698900 12.399400 31.406601
v 15.726900 12.399400 31.406601
v 15.726900 12.399400 -31.135700
v -15.698900 12.399400 -31.135700
v 9.245400 39.459499 27.113701
v 9.245400 34.343399 31.681900
v -9.217400 39.459499 27.113701
v -9.217400 34.343399 31.695299
v 0.007800 14.072100 3.870800
v -8.502900 45.954700 -22.468500
v -8.502900 36.976299 -30.572399
v -8.502900 33.676498 -29.895000
v -8.502900 43.050999 -15.866300
v -8.502900 45.954700 -16.553801
v 8.530800 43.050999 -15.866300
v 8.530800 45.954700 -16.553801
v 8.530800 36.976299 -30.572399
v 8.530800 33.676498 -29.895000
v 8.530800 45.954700 -22.468500
v -7.028000 45.954700 -17.446400
v -7.028000 45.954700 -22.468500
v -7.028000 37.638901 -29.974300
v 7.055900 45.954700 -22.468500
v 7.055900 45.954700 -17.446400
v 7.055900 37.638901 -29.974300
v -7.028000 44.435001 -17.674400
v -7.028000 36.866402 -28.291201
v 7.055900 36.866402 -28.291201
v 7.055900 44.435001 -17.674400
v -4.299900 37.638901 -29.974300
v -4.299900 45.954700 -22.468500
v -1.350100 45.954700 -22.468500
v -1.350100 37.638901 -29.974300
v -4.299900 45.954700 -17.446400
v -1.350100 45.954700 -17.446400
v 1.378000 45.954700 -17.446400
v 4.327800 45.954700 -17.446400
v 4.327800 45.954700 -22.468500
v 1.378000 45.954700 -22.468500
v 1.378000 37.638901 -29.974300
v 1.378000 36.866402 -28.291201
v 1.378000 44.435001 -17.674400
v -1.350100 44.435001 -17.674400
v -1.350100 36.866402 -28.291201
v -4.299900 36.866402 -28.291201
v -4.299900 44.435001 -17.674400
v 4.327800 44.435001 -17.674400
v 4.327800 36.866402 -28.291201
v 4.327800 37.638901 -29.974300
v -7.028000 44.858200 -21.751301
v -7.028000 44.858200 -17.674400
v 7.055900 44.858200 -17.674400
v 7.055900 44.858200 -21.751301
v -7.028000 37.021599 -28.880800
v 7.055900 37.021599 -28.880800
v 9.672800 32.425098 -34.044701
v 5.816500 32.425098 -34.044701
v 5.816500 32.773102 -30.691000
v 9.672800 32.773102 -30.691000
v 5.816500 12.399400 -31.106899
v 5.816500 15.673700 -34.360901
v 9.672800 15.673700 -34.360901
v 9.672800 12.399400 -31.106899
v 9.672800 28.745199 -37.244701
v 5.816500 28.745199 -37.244701
v -9.644900 32.425098 -34.044701
v -9.644900 32.773102 -30.691000
v -5.788500 32.773102 -30.691000
v -5.788500 32.425098 -34.044701
v -5.788500 12.399400 -31.106899
v -9.644900 12.399400 -31.106899
v -9.644900 15.673700 -34.360901
v -5.788500 15.673700 -34.360901
v -9.644900 28.745199 -37.244701
v -5.788500 28.745199 -37.244701
v 9.870300 38.840099 26.072201
v -9.843000 38.840099 26.072201
v -9.843000 33.377602 30.964001
v 9.870300 33.377602 30.949699
v -9.082200 19.865299 36.480099
v -9.082200 10.688100 33.075802
v 9.082300 10.688100 33.075802
v 9.082300 19.865299 36.480099
v 9.082300 20.663000 34.141399
v -9.082200 20.663000 34.141399
v 9.082300 12.399400 31.406601
v 9.082300 10.558900 25.207899
v -9.082200 12.399400 31.406601
v -9.082200 10.558900 25.207899
v -4.353500 43.050999 -14.279900
v -12.317100 43.050999 -5.477300
v -12.317100 45.568401 -5.477300
v -4.353500 45.568401 -14.279900
v -12.317100 43.050999 4.524000
v -5.961800 43.050999 13.594500
v -5.961800 45.568401 13.594500
v -12.317100 45.568401 4.524000
v -3.665900 48.429901 -6.929100
v -6.795900 48.429901 0.270600
v -2.657200 48.429901 7.151800
v 6.017800 45.568401 13.594500
v 2.713300 48.429901 7.151800
v 6.017800 43.050999 13.594500
v 4.409500 43.050999 -14.279900
v 4.409500 45.568401 -14.279900
v 12.373100 45.568401 -5.477300
v 12.373100 43.050999 -5.477300
v 12.373100 43.050999 4.524000
v 12.373100 45.568401 4.524000
v 3.722000 48.429901 -6.929100
v 6.852000 48.429901 0.270600
v 1.458900 68.923103 4.051000
v 4.611600 68.923103 1.400000
v -2.600900 68.923103 3.354600
v 2.656900 68.923103 -5.812500
v 4.911600 68.045799 -6.140400
v 1.801600 68.045799 -7.924200
v -1.783700 68.045799 -7.914000
v -1.402900 68.923103 -6.508800
v -4.883500 68.045799 -6.112500
v -4.555500 68.923103 -3.857800
v -6.667200 68.045799 -3.002500
v -6.657000 68.045799 0.582800
v -5.251900 68.923103 0.202000
v -4.855500 68.045799 3.682600
v -1.745500 68.045799 5.466400
v 1.839700 68.045799 5.456100
v 4.939500 68.045799 3.654600
v 6.723300 68.045799 0.544600
v 5.307900 68.923103 -2.659800
v 6.713100 68.045799 -3.040600
v 0.028000 10.386800 -1.228900
v 1.835800 63.145500 14.229700
v 1.918600 63.327301 11.180800
v -1.862500 63.327301 11.180800
v -1.779800 63.145500 14.229700
v -3.239500 62.143002 14.229700
v 3.295500 62.143002 14.229700
v 3.295500 57.155300 14.229700
v 3.608000 56.585602 12.287900
v 3.462400 62.315899 11.346900
v -3.239500 57.155300 14.229700
v -3.406300 62.315899 11.346900
v -3.552000 56.585602 12.287900
v 2.785000 58.722000 33.078899
v 1.170800 57.106701 33.078899
v 1.170800 57.106701 14.229700
v 2.785000 58.722000 14.229700
v -1.112800 57.105900 33.078899
v -1.112800 57.105900 14.229700
v -2.728100 58.720001 33.078899
v -2.728100 58.720001 14.229700
v -2.728900 61.003601 33.078899
v -2.728900 61.003601 14.229700
v -1.114700 62.618900 33.078899
v -1.114700 62.618900 14.229700
v 1.168800 62.619701 33.078899
v 1.168900 62.619701 14.229700
v 2.784200 61.005600 33.078899
v 2.784200 61.005600 14.229700
v 14.367300 51.571602 -5.115000
v 10.503200 51.571602 -11.764000
v 8.902900 65.475700 -10.154500
v 12.176700 65.475700 -4.521300
v 3.832200 51.571602 -15.590100
v 3.251100 65.475700 -13.396200
v -3.858100 51.571602 -15.568200
v -3.264400 65.475700 -13.377600
v -10.507100 51.571602 -11.704100
v -8.897600 65.475700 -10.103800
v -14.333200 51.571602 -5.033100
v -12.139200 65.475700 -4.451900
v -14.311300 51.571602 2.657200
v -12.120600 65.475700 2.063500
v -10.447100 51.571602 9.306200
v -8.846800 65.475700 7.696700
v -3.776200 51.571602 13.132300
v -3.195000 65.475700 10.938300
v 3.914100 51.571602 13.110400
v 3.320400 65.475700 10.919800
v 10.563100 51.571602 9.246200
v 8.953700 65.475700 7.645900
v 14.389300 51.571602 2.575300
v 12.195300 65.475700 1.994100
v -10.376200 66.883499 -1.199200
v -7.566700 66.883499 6.409200
v 7.666200 66.883499 6.365800
v 10.432300 66.883499 -1.258600
v 7.622700 66.883499 -8.867100
v -0.001700 66.883499 -11.633200
v -7.610100 66.883499 -8.823600
v 0.057700 66.883499 9.175300
v 8.867400 45.568401 3.443900
v 8.873400 45.568401 -3.881300
v 8.873400 51.571602 -3.881300
v 8.867400 51.571602 3.443900
v 3.697900 45.568401 -9.065300
v 3.697900 51.571602 -9.065300
v -3.627300 45.568401 -9.071300
v -3.627300 51.571602 -9.071300
v -8.811300 45.568401 -3.895800
v -8.811300 51.571602 -3.895800
v -8.817300 45.568401 3.429400
v -8.817300 51.571602 3.429400
v -3.641800 45.568401 8.613400
v -3.641800 51.571602 8.613400
v 3.683400 45.568401 8.619400
v 3.683400 51.571602 8.619400
v 17.998100 15.743000 -16.629900
v 17.998100 12.488800 -13.375700
v -17.970200 12.488800 -13.375700
v -17.970200 15.743000 -16.629900
v 17.998199 15.743000 -10.121500
v -17.970200 15.743000 -10.121500
v 17.998100 18.997200 -13.375700
v -17.970200 18.997200 -13.375700
v -16.759300 42.101299 -8.259700
v -16.759300 42.101299 -21.283501
v -22.494101 42.101299 -21.283501
v -22.494101 42.101299 -8.259700
v -16.759300 32.726501 -8.259700
v -22.494101 32.726501 -8.259700
v -22.494101 32.726501 -21.283501
v -16.759300 32.726501 -21.283501
v -16.983200 42.716702 -13.084000
v -16.983200 42.716702 -16.459200
v -22.270100 42.716702 -16.459200
v -22.270100 42.716702 -13.084000
v -22.870501 32.761299 -13.084000
v -22.270100 32.111099 -13.084000
v -16.983200 32.111099 -13.084000
v -16.382799 32.761299 -13.084000
v -16.382799 42.066399 -13.084000
v -22.870501 42.066399 -13.084000
v -22.870501 42.066399 -16.459200
v -22.870501 32.761299 -16.459200
v -16.382799 32.761299 -16.459200
v -16.983200 32.111099 -16.459200
v -22.270100 32.111099 -16.459200
v -16.382799 42.066399 -16.459200
v -24.111900 33.798199 10.438000
v -21.086100 43.058498 10.438100
v -21.085600 43.058498 -3.333200
v -24.111500 33.798199 -3.333300
v -18.160000 30.754900 10.438200
v -23.443600 32.481300 10.438000
v -23.443199 32.481300 -3.333300
v -18.159500 30.754900 -3.333100
v -17.835199 31.747400 -4.377400
v -23.118799 33.473900 -4.377500
v -20.093000 42.734200 -4.377400
v -14.809300 41.007702 -4.377300
v -14.485000 42.000301 -3.333000
v -19.768700 43.726799 -3.333200
v -19.769199 43.726799 10.438100
v -14.485500 42.000301 10.438300
v -14.809900 41.007702 11.482500
v -20.093500 42.734200 11.482400
v -23.119400 33.473900 11.482300
v -17.835699 31.747400 11.482400
v -16.843000 31.423100 10.438200
v -16.842600 31.423100 -3.333100
v -13.817200 40.683399 10.438300
v -13.816800 40.683399 -3.333000
v -13.495200 41.355000 -10.592400
v -13.495200 41.355000 -18.950800
v -16.382799 41.355000 -18.950800
v -16.382799 41.355000 -10.592400
v -16.382799 30.736000 -18.950800
v -16.382799 30.736000 -10.592400
v -16.382799 41.355000 -13.084000
v -16.382799 41.355000 -16.459200
# 688 positions

vt 0.940300 0.602600
vt 0.940300 0.645900
vt 0.845900 0.645900
vt 0.845900 0.602600
vt 0.846000 0.711300
vt 0.802600 0.711300
vt 0.802600 0.645900
vt 0.845900 0.645900
vt 0.940300 0.711300
vt 0.846000 0.711300
vt 0.802600 0.711300
vt 0.802600 0.645900
vt 0.845900 0.537200
vt 0.940300 0.537200
vt 0.965000 0.775100
vt 0.965000 0.732000
vt 0.991400 0.732000
vt 0.991400 0.775100
vt 0.960100 0.780000
vt 0.890100 0.780000
vt 0.885200 0.775100
vt 0.885200 0.732000
vt 0.890100 0.727100
vt 0.960100 0.727100
vt 0.965000 0.655000
vt 0.991400 0.655000
vt 0.991400 0.725000
vt 0.965000 0.725000
vt 0.965000 0.775100
vt 0.965000 0.732000
vt 0.960100 0.727100
vt 0.890100 0.727100
vt 0.885200 0.732000
vt 0.885200 0.775100
vt 0.890100 0.780000
vt 0.960100 0.780000
vt 0.991400 0.648100
vt 0.965000 0.648100
vt 0.991400 0.782000
vt 0.965000 0.782000
vt 0.478700 0.757300
vt 0.379600 0.757300
vt 0.379600 0.688700
vt 0.478700 0.688700
vt 0.478700 0.810600
vt 0.379600 0.810600
vt 0.379600 0.769100
vt 0.478700 0.769100
vt 0.531200 0.757300
vt 0.531200 0.688700
vt 0.489600 0.688700
vt 0.489600 0.757300
vt 0.379600 0.640200
vt 0.478700 0.640200
vt 0.478700 0.681700
vt 0.379600 0.681700
vt 0.531200 0.688700
vt 0.531200 0.757300
vt 0.489600 0.757300
vt 0.489600 0.688700
vt 0.489600 0.812500
vt 0.479900 0.821100
vt 0.378500 0.821100
vt 0.369000 0.812500
vt 0.489600 0.638900
vt 0.479900 0.630300
vt 0.378500 0.630300
vt 0.369000 0.638900
vt 0.369000 0.757300
vt 0.369000 0.688700
vt 0.541700 0.757300
vt 0.541700 0.688700
vt 0.541700 0.688700
vt 0.541700 0.757300
vt 0.369000 0.770100
vt 0.489600 0.770100
vt 0.369000 0.681300
vt 0.489600 0.681300
vt 0.523700 0.872700
vt 0.523700 0.837000
vt 0.580800 0.837000
vt 0.580800 0.872700
vt 0.523700 0.767200
vt 0.580800 0.767200
vt 0.488000 0.837000
vt 0.616500 0.837000
vt 0.991400 0.782000
vt 0.965000 0.782000
vt 0.141200 0.873600
vt 0.141200 0.908600
vt 0.104500 0.908600
vt 0.104500 0.873600
vt 0.141200 0.818700
vt 0.104500 0.818700
vt 0.141200 0.775500
vt 0.104500 0.775500
vt 0.141200 0.731400
vt 0.104500 0.731400
vt 0.141200 0.686200
vt 0.104500 0.686200
vt 0.141200 0.639700
vt 0.104500 0.639700
vt 0.141200 0.594700
vt 0.104500 0.594700
vt 0.141200 0.549500
vt 0.104500 0.549500
vt 0.141200 0.500500
vt 0.104500 0.500500
vt 0.141200 0.458300
vt 0.104500 0.458300
vt 0.141200 0.413800
vt 0.104500 0.413800
vt 0.141200 0.376100
vt 0.104500 0.376100
vt 0.141200 0.321300
vt 0.104500 0.321300
vt 0.141200 0.274900
vt 0.104500 0.274900
vt 0.168200 0.274900
vt 0.168200 0.315100
vt 0.168200 0.804900
vt 0.168200 0.895900
vt 0.168200 0.753900
vt 0.168200 0.692500
vt 0.168200 0.627500
vt 0.168200 0.564300
vt 0.168200 0.500500
vt 0.168200 0.441200
vt 0.168200 0.376100
vt 0.420200 0.467000
vt 0.470100 0.466400
vt 0.446000 0.543300
vt 0.510800 0.495300
vt 0.526800 0.542600
vt 0.512000 0.590300
vt 0.471900 0.620200
vt 0.421900 0.620700
vt 0.381100 0.591800
vt 0.365200 0.544500
vt 0.380100 0.496800
vt 0.679700 0.839600
vt 0.693300 0.847800
vt 0.658100 0.867300
vt 0.658100 0.851900
vt 0.679700 0.814800
vt 0.693400 0.806200
vt 0.658100 0.802600
vt 0.658100 0.786600
vt 0.637000 0.814800
vt 0.622700 0.806500
vt 0.637000 0.839600
vt 0.622700 0.847900
vt 0.650500 0.602300
vt 0.570900 0.602300
vt 0.610600 0.533700
vt 0.570900 0.465000
vt 0.650500 0.465000
vt 0.531400 0.533700
vt 0.690100 0.533700
vt 0.040900 0.908600
vt 0.040900 0.873600
vt 0.040900 0.818700
vt 0.040900 0.775500
vt 0.040900 0.731400
vt 0.040900 0.639700
vt 0.040900 0.594700
vt 0.040900 0.549500
vt 0.040900 0.500500
vt 0.008900 0.873600
vt 0.008900 0.908600
vt 0.008900 0.818700
vt 0.008900 0.775500
vt 0.008900 0.731400
vt 0.008900 0.686200
vt 0.040900 0.686200
vt 0.008900 0.639700
vt 0.008900 0.594700
vt 0.008900 0.549500
vt 0.008900 0.500500
vt 0.008900 0.458300
vt 0.040900 0.458300
vt 0.008900 0.413800
vt 0.040900 0.413800
vt 0.008900 0.376100
vt 0.040900 0.376100
vt 0.008900 0.321300
vt 0.040900 0.321300
vt 0.008900 0.274900
vt 0.040800 0.274900
vt 0.184700 0.519900
vt 0.210700 0.487300
vt 0.210700 0.633600
vt 0.184700 0.601000
vt 0.327300 0.487300
vt 0.327300 0.633600
vt 0.289800 0.651600
vt 0.289800 0.469300
vt 0.248200 0.651600
vt 0.248200 0.469300
vt 0.353200 0.519900
vt 0.353200 0.601000
vt 0.362500 0.560400
vt 0.175500 0.560400
vt 0.141200 0.873600
vt 0.141200 0.908600
vt 0.104500 0.908600
vt 0.104500 0.873600
vt 0.141200 0.818700
vt 0.104500 0.818700
vt 0.141200 0.775500
vt 0.104500 0.775500
vt 0.141200 0.731400
vt 0.104500 0.731400
vt 0.141200 0.686200
vt 0.104500 0.686200
vt 0.141200 0.639700
vt 0.104500 0.639700
vt 0.141200 0.594700
vt 0.104500 0.594700
vt 0.141200 0.549500
vt 0.104500 0.549500
vt 0.141200 0.500500
vt 0.104500 0.500500
vt 0.141200 0.458300
vt 0.104500 0.458300
vt 0.141200 0.413800
vt 0.104500 0.413800
vt 0.141200 0.376100
vt 0.104500 0.376100
vt 0.141200 0.321300
vt 0.104500 0.321300
vt 0.141200 0.274900
vt 0.104500 0.274900
vt 0.168200 0.274900
vt 0.168200 0.315100
vt 0.168200 0.804900
vt 0.168200 0.895900
vt 0.168200 0.753900
vt 0.168200 0.692500
vt 0.168200 0.627500
vt 0.168200 0.564300
vt 0.168200 0.500500
vt 0.168200 0.441200
vt 0.168200 0.376100
vt 0.420200 0.467000
vt 0.470100 0.466400
vt 0.446000 0.543300
vt 0.510800 0.495300
vt 0.526800 0.542600
vt 0.512000 0.590300
vt 0.471900 0.620200
vt 0.421900 0.620700
vt 0.381100 0.591800
vt 0.365200 0.544500
vt 0.380100 0.496800
vt 0.679700 0.839600
vt 0.693300 0.847800
vt 0.658100 0.867300
vt 0.658100 0.851900
vt 0.679700 0.814800
vt 0.693400 0.806200
vt 0.658100 0.802600
vt 0.658100 0.786600
vt 0.637000 0.814800
vt 0.622700 0.806500
vt 0.637000 0.839600
vt 0.622700 0.847900
vt 0.650500 0.602300
vt 0.570900 0.602300
vt 0.610600 0.533700
vt 0.570900 0.465000
vt 0.650500 0.465000
vt 0.531400 0.533700
vt 0.690100 0.533700
vt 0.040900 0.908600
vt 0.040900 0.873600
vt 0.040900 0.818700
vt 0.040900 0.775500
vt 0.040900 0.731400
vt 0.040900 0.639700
vt 0.040900 0.594700
vt 0.040900 0.549500
vt 0.040900 0.500500
vt 0.008900 0.873600
vt 0.008900 0.908600
vt 0.008900 0.818700
vt 0.008900 0.775500
vt 0.008900 0.731400
vt 0.008900 0.686200
vt 0.040900 0.686200
vt 0.008900 0.639700
vt 0.008900 0.594700
vt 0.008900 0.549500
vt 0.008900 0.500500
vt 0.008900 0.458300
vt 0.040900 0.458300
vt 0.008900 0.413800
vt 0.040900 0.413800
vt 0.008900 0.376100
vt 0.040900 0.376100
vt 0.008900 0.321300
vt 0.040900 0.321300
vt 0.008900 0.274900
vt 0.040800 0.274900
vt 0.184700 0.519900
vt 0.210700 0.487300
vt 0.210700 0.633600
vt 0.184700 0.601000
vt 0.327300 0.487300
vt 0.327300 0.633600
vt 0.289800 0.651600
vt 0.289800 0.469300
vt 0.248200 0.651600
vt 0.248200 0.469300
vt 0.353200 0.519900
vt 0.353200 0.601000
vt 0.362500 0.560400
vt 0.175500 0.560400
vt 0.141200 0.873600
vt 0.104500 0.873600
vt 0.104500 0.908600
vt 0.141200 0.908600
vt 0.141200 0.818700
vt 0.104500 0.818700
vt 0.141200 0.775500
vt 0.104500 0.775500
vt 0.141200 0.731400
vt 0.104500 0.731400
vt 0.141200 0.686200
vt 0.104500 0.686200
vt 0.141200 0.639700
vt 0.104500 0.639700
vt 0.141200 0.594700
vt 0.104500 0.594700
vt 0.141200 0.549500
vt 0.104500 0.549500
vt 0.141200 0.500500
vt 0.104500 0.500500
vt 0.141200 0.458300
vt 0.104500 0.458300
vt 0.141200 0.413800
vt 0.104500 0.413800
vt 0.141200 0.376100
vt 0.104500 0.376100
vt 0.141200 0.321300
vt 0.104500 0.321300
vt 0.141200 0.274900
vt 0.104500 0.274900
vt 0.168200 0.315100
vt 0.168200 0.274900
vt 0.168200 0.895900
vt 0.168200 0.804900
vt 0.168200 0.753900
vt 0.168200 0.692500
vt 0.168200 0.627500
vt 0.168200 0.564300
vt 0.168200 0.500500
vt 0.168200 0.441200
vt 0.168200 0.376100
vt 0.420200 0.467000
vt 0.446000 0.543300
vt 0.470100 0.466400
vt 0.510800 0.495300
vt 0.526800 0.542600
vt 0.512000 0.590300
vt 0.471900 0.620200
vt 0.421900 0.620700
vt 0.381100 0.591800
vt 0.365200 0.544500
vt 0.380100 0.496800
vt 0.679700 0.839600
vt 0.658100 0.851900
vt 0.658100 0.867300
vt 0.693300 0.847800
vt 0.679700 0.814800
vt 0.693400 0.806200
vt 0.658100 0.802600
vt 0.658100 0.786600
vt 0.637000 0.814800
vt 0.622700 0.806500
vt 0.637000 0.839600
vt 0.622700 0.847900
vt 0.650500 0.602300
vt 0.610600 0.533700
vt 0.570900 0.602300
vt 0.570900 0.465000
vt 0.650500 0.465000
vt 0.531400 0.533700
vt 0.690100 0.533700
vt 0.040900 0.873600
vt 0.040900 0.908600
vt 0.040900 0.818700
vt 0.040900 0.731400
vt 0.040900 0.775500
vt 0.040900 0.594700
vt 0.040900 0.639700
vt 0.040900 0.549500
vt 0.040900 0.500500
vt 0.008900 0.873600
vt 0.008900 0.908600
vt 0.008900 0.818700
vt 0.008900 0.775500
vt 0.008900 0.731400
vt 0.008900 0.686200
vt 0.040900 0.686200
vt 0.008900 0.639700
vt 0.008900 0.594700
vt 0.008900 0.549500
vt 0.008900 0.500500
vt 0.008900 0.458300
vt 0.040900 0.458300
vt 0.008900 0.413800
vt 0.040900 0.413800
vt 0.008900 0.376100
vt 0.040900 0.376100
vt 0.008900 0.321300
vt 0.040900 0.321300
vt 0.008900 0.274900
vt 0.040800 0.274900
vt 0.184700 0.519900
vt 0.184700 0.601000
vt 0.210700 0.633600
vt 0.210700 0.487300
vt 0.327300 0.487300
vt 0.289800 0.469300
vt 0.289800 0.651600
vt 0.327300 0.633600
vt 0.248200 0.469300
vt 0.248200 0.651600
vt 0.353200 0.519900
vt 0.353200 0.601000
vt 0.362500 0.560400
vt 0.175500 0.560400
vt 0.141200 0.873600
vt 0.104500 0.873600
vt 0.104500 0.908600
vt 0.141200 0.908600
vt 0.141200 0.818700
vt 0.104500 0.818700
vt 0.141200 0.775500
vt 0.104500 0.775500
vt 0.141200 0.731400
vt 0.104500 0.731400
vt 0.141200 0.686200
vt 0.104500 0.686200
vt 0.141200 0.639700
vt 0.104500 0.639700
vt 0.141200 0.594700
vt 0.104500 0.594700
vt 0.141200 0.549500
vt 0.104500 0.549500
vt 0.141200 0.500500
vt 0.104500 0.500500
vt 0.141200 0.458300
vt 0.104500 0.458300
vt 0.141200 0.413800
vt 0.104500 0.413800
vt 0.141200 0.376100
vt 0.104500 0.376100
vt 0.141200 0.321300
vt 0.104500 0.321300
vt 0.141200 0.274900
vt 0.104500 0.274900
vt 0.168200 0.315100
vt 0.168200 0.274900
vt 0.168200 0.895900
vt 0.168200 0.804900
vt 0.168200 0.753900
vt 0.168200 0.692500
vt 0.168200 0.627500
vt 0.168200 0.564300
vt 0.168200 0.500500
vt 0.168200 0.441200
vt 0.168200 0.376100
vt 0.420200 0.467000
vt 0.446000 0.543300
vt 0.470100 0.466400
vt 0.510800 0.495300
vt 0.526800 0.542600
vt 0.512000 0.590300
vt 0.471900 0.620200
vt 0.421900 0.620700
vt 0.381100 0.591800
vt 0.365200 0.544500
vt 0.380100 0.496800
vt 0.679700 0.839600
vt 0.658100 0.851900
vt 0.658100 0.867300
vt 0.693300 0.847800
vt 0.679700 0.814800
vt 0.693400 0.806200
vt 0.658100 0.802600
vt 0.658100 0.786600
vt 0.637000 0.814800
vt 0.622700 0.806500
vt 0.637000 0.839600
vt 0.622700 0.847900
vt 0.650500 0.602300
vt 0.610600 0.533700
vt 0.570900 0.602300
vt 0.570900 0.465000
vt 0.650500 0.465000
vt 0.531400 0.533700
vt 0.690100 0.533700
vt 0.040900 0.873600
vt 0.040900 0.908600
vt 0.040900 0.818700
vt 0.040900 0.731400
vt 0.040900 0.775500
vt 0.040900 0.594700
vt 0.040900 0.639700
vt 0.040900 0.549500
vt 0.040900 0.500500
vt 0.008900 0.873600
vt 0.008900 0.908600
vt 0.008900 0.818700
vt 0.008900 0.775500
vt 0.008900 0.731400
vt 0.008900 0.686200
vt 0.040900 0.686200
vt 0.008900 0.639700
vt 0.008900 0.594700
vt 0.008900 0.549500
vt 0.008900 0.500500
vt 0.008900 0.458300
vt 0.040900 0.458300
vt 0.008900 0.413800
vt 0.040900 0.413800
vt 0.008900 0.376100
vt 0.040900 0.376100
vt 0.008900 0.321300
vt 0.040900 0.321300
vt 0.008900 0.274900
vt 0.040800 0.274900
vt 0.184700 0.519900
vt 0.184700 0.601000
vt 0.210700 0.633600
vt 0.210700 0.487300
vt 0.327300 0.487300
vt 0.289800 0.469300
vt 0.289800 0.651600
vt 0.327300 0.633600
vt 0.248200 0.469300
vt 0.248200 0.651600
vt 0.353200 0.519900
vt 0.353200 0.601000
vt 0.362500 0.560400
vt 0.175500 0.560400
vt 0.902500 0.267000
vt 0.872700 0.267000
vt 0.872700 0.008800
vt 0.902500 0.008800
vt 0.992000 0.267000
vt 0.962200 0.267000
vt 0.962200 0.008800
vt 0.992000 0.008800
vt 0.932300 0.267000
vt 0.932300 0.008800
vt 0.601300 0.043500
vt 0.745300 0.008400
vt 0.745300 0.266200
vt 0.601300 0.231100
vt 0.697200 0.344100
vt 0.601300 0.231100
vt 0.274200 0.231100
vt 0.178100 0.344000
vt 0.274100 0.043500
vt 0.274100 0.231100
vt 0.130100 0.266200
vt 0.009200 0.250400
vt 0.009200 0.024200
vt 0.130100 0.008500
vt 0.220100 0.458400
vt 0.670300 0.458400
vt 0.861700 0.024200
vt 0.861700 0.250400
vt 0.697200 0.344000
vt 0.178100 0.344000
vt 0.670300 0.458400
vt 0.220100 0.458400
vt 0.239400 0.070900
vt 0.190100 0.070900
vt 0.239400 0.203800
vt 0.190000 0.203800
vt 0.385800 0.025900
vt 0.432000 0.008600
vt 0.498400 0.256400
vt 0.564900 0.008600
vt 0.385800 0.025900
vt 0.432000 0.008600
vt 0.564900 0.008600
vt 0.783200 0.604600
vt 0.783200 0.504800
vt 0.805600 0.488400
vt 0.839700 0.623400
vt 0.819400 0.637300
vt 0.783200 0.653400
vt 0.783200 0.678100
vt 0.698100 0.678100
vt 0.698100 0.653400
vt 0.698100 0.504800
vt 0.698100 0.477000
vt 0.783200 0.477000
vt 0.783200 0.604600
vt 0.819400 0.637300
vt 0.839700 0.623400
vt 0.805600 0.488400
vt 0.783200 0.504800
vt 0.775800 0.646100
vt 0.775800 0.604600
vt 0.775800 0.512200
vt 0.698100 0.604600
vt 0.705500 0.604600
vt 0.705500 0.646100
vt 0.705500 0.512200
vt 0.977900 0.563700
vt 0.949400 0.589400
vt 0.942900 0.579700
vt 0.964400 0.482400
vt 0.977900 0.478100
vt 0.977900 0.563700
vt 0.977900 0.478100
vt 0.964400 0.482400
vt 0.942900 0.579700
vt 0.949400 0.589400
vt 0.775800 0.527500
vt 0.705500 0.527500
vt 0.705500 0.633400
vt 0.775800 0.633400
vt 0.991500 0.478100
vt 0.991500 0.563700
vt 0.977900 0.563700
vt 0.977900 0.478100
vt 0.991500 0.602100
vt 0.977900 0.602100
vt 0.991500 0.602100
vt 0.977900 0.602100
vt 0.977900 0.563700
vt 0.991500 0.563700
vt 0.977900 0.563700
vt 0.977900 0.478100
vt 0.964400 0.482400
vt 0.942900 0.579700
vt 0.949400 0.589400
vt 0.949400 0.589400
vt 0.942900 0.579700
vt 0.964400 0.482400
vt 0.977900 0.563700
vt 0.977900 0.478100
vt 0.964400 0.482400
vt 0.942900 0.579700
vt 0.949400 0.589400
vt 0.949400 0.589400
vt 0.942900 0.579700
vt 0.964400 0.482400
vt 0.977900 0.478100
vt 0.991500 0.478100
vt 0.893700 0.868400
vt 0.855900 0.868400
vt 0.855900 0.789600
vt 0.893700 0.789600
vt 0.991700 0.868400
vt 0.991700 0.789600
vt 0.735900 0.294600
vt 0.697700 0.294600
vt 0.702300 0.269200
vt 0.731300 0.269200
vt 0.702400 0.458600
vt 0.702400 0.423900
vt 0.731200 0.423900
vt 0.731200 0.458600
vt 0.727000 0.325000
vt 0.706600 0.325000
vt 0.735900 0.294600
vt 0.727000 0.325000
vt 0.731200 0.423900
vt 0.752400 0.449800
vt 0.770500 0.297500
vt 0.770500 0.297500
vt 0.752400 0.449800
vt 0.697700 0.294600
vt 0.702200 0.269200
vt 0.731300 0.269200
vt 0.735900 0.294600
vt 0.731200 0.458600
vt 0.702400 0.458600
vt 0.702400 0.423900
vt 0.731200 0.423900
vt 0.735900 0.294600
vt 0.727000 0.325000
vt 0.731200 0.423900
vt 0.752400 0.449800
vt 0.770500 0.297500
vt 0.727000 0.325000
vt 0.770500 0.297500
vt 0.752400 0.449800
vt 0.706600 0.325000
vt 0.176400 0.850500
vt 0.313800 0.850400
vt 0.313800 0.901600
vt 0.176400 0.901500
vt 0.559200 0.679400
vt 0.559200 0.609300
vt 0.689800 0.609300
vt 0.689800 0.679400
vt 0.689800 0.697400
vt 0.559200 0.697400
vt 0.559200 0.679400
vt 0.559200 0.609300
vt 0.542500 0.616700
vt 0.542500 0.679400
vt 0.506500 0.608700
vt 0.542500 0.679400
vt 0.542500 0.616700
vt 0.506500 0.608700
vt 0.920700 0.514000
vt 0.989800 0.439500
vt 0.974300 0.433500
vt 0.914200 0.499200
vt 0.991200 0.352700
vt 0.933400 0.276600
vt 0.926400 0.290400
vt 0.974900 0.357900
vt 0.907700 0.440100
vt 0.929800 0.389900
vt 0.900200 0.342300
vt 0.837200 0.290400
vt 0.863400 0.342300
vt 0.830200 0.276600
vt 0.842900 0.514000
vt 0.849400 0.499200
vt 0.789400 0.433500
vt 0.773800 0.439500
vt 0.772400 0.352700
vt 0.788700 0.357900
vt 0.856000 0.440100
vt 0.833800 0.389900
vt 0.414100 0.877200
vt 0.394000 0.853500
vt 0.409300 0.908000
vt 0.340000 0.868600
vt 0.336100 0.850600
vt 0.322600 0.874900
vt 0.322900 0.902900
vt 0.335200 0.899400
vt 0.337300 0.926900
vt 0.355300 0.923200
vt 0.361400 0.940600
vt 0.389400 0.940600
vt 0.385900 0.928300
vt 0.413300 0.926000
vt 0.426700 0.901700
vt 0.426500 0.873700
vt 0.412100 0.849800
vt 0.387900 0.836000
vt 0.363400 0.848300
vt 0.359900 0.836000
vt 0.057000 0.941900
vt 0.151100 0.534600
vt 0.032000 0.935300
vt 0.007500 0.927200
vt 0.310200 0.921200
vt 0.286000 0.930300
vt 0.261300 0.937900
vt 0.236300 0.943900
vt 0.210800 0.948400
vt 0.185200 0.951300
vt 0.159400 0.952600
vt 0.133600 0.952300
vt 0.107900 0.950400
vt 0.082300 0.947000
vt 0.613100 0.753900
vt 0.610900 0.778400
vt 0.644100 0.778400
vt 0.642000 0.753900
vt 0.654800 0.748600
vt 0.600100 0.748600
vt 0.600100 0.707400
vt 0.583900 0.702800
vt 0.576300 0.750100
vt 0.595200 0.773900
vt 0.600100 0.707400
vt 0.600100 0.748600
vt 0.576300 0.750100
vt 0.583900 0.702800
vt 0.659800 0.773800
vt 0.654800 0.707400
vt 0.706200 0.840000
vt 0.706200 0.822800
vt 0.848200 0.822800
vt 0.848200 0.840000
vt 0.706200 0.805600
vt 0.848200 0.805600
vt 0.706200 0.788400
vt 0.848200 0.788400
vt 0.706200 0.771200
vt 0.848200 0.771200
vt 0.706200 0.753100
vt 0.848200 0.753100
vt 0.706200 0.737800
vt 0.848200 0.737800
vt 0.706200 0.719600
vt 0.848200 0.719600
vt 0.706200 0.857200
vt 0.848200 0.857200
vt 0.682900 0.750300
vt 0.682900 0.740600
vt 0.690100 0.733800
vt 0.698900 0.733800
vt 0.699400 0.757100
vt 0.689700 0.757100
vt 0.851300 0.991500
vt 0.897500 0.991500
vt 0.897500 0.879400
vt 0.851300 0.879400
vt 0.943700 0.991500
vt 0.943700 0.879400
vt 0.990000 0.991500
vt 0.990000 0.879400
vt 0.435300 0.991500
vt 0.481500 0.991500
vt 0.481500 0.879400
vt 0.435300 0.879400
vt 0.527800 0.991500
vt 0.527800 0.879400
vt 0.574000 0.991500
vt 0.574000 0.879400
vt 0.620200 0.991500
vt 0.620200 0.879400
vt 0.666400 0.991500
vt 0.666400 0.879400
vt 0.712600 0.991500
vt 0.712600 0.879400
vt 0.758900 0.991500
vt 0.758900 0.879400
vt 0.805100 0.991500
vt 0.805100 0.879400
vt 0.342900 0.749500
vt 0.322700 0.694900
vt 0.212400 0.694900
vt 0.192200 0.749500
vt 0.201000 0.815800
vt 0.212400 0.804200
vt 0.177000 0.773600
vt 0.243500 0.839200
vt 0.267500 0.823800
vt 0.291600 0.839200
vt 0.334100 0.815800
vt 0.322700 0.804200
vt 0.358100 0.773600
vt 0.358100 0.725500
vt 0.334100 0.683300
vt 0.291600 0.659900
vt 0.267500 0.675300
vt 0.243500 0.659900
vt 0.201000 0.683300
vt 0.177000 0.725500
vt 0.323400 0.991700
vt 0.376000 0.991700
vt 0.376000 0.958700
vt 0.323400 0.958700
vt 0.428500 0.991700
vt 0.428500 0.958700
vt 0.007900 0.991700
vt 0.060500 0.991700
vt 0.060500 0.958700
vt 0.007900 0.958700
vt 0.113100 0.991700
vt 0.113100 0.958700
vt 0.165700 0.991700
vt 0.165700 0.958700
vt 0.218200 0.991700
vt 0.218200 0.958700
vt 0.270800 0.991700
vt 0.270800 0.958700
vt 0.902500 0.267000
vt 0.872700 0.267000
vt 0.872700 0.008800
vt 0.902500 0.008800
vt 0.992000 0.267000
vt 0.962100 0.267000
vt 0.962100 0.008800
vt 0.992000 0.008800
vt 0.932300 0.267000
vt 0.932300 0.008800
vt 0.940300 0.602600
vt 0.845900 0.602600
vt 0.845900 0.645900
vt 0.940300 0.645900
vt 0.846000 0.711300
vt 0.845900 0.645900
vt 0.802600 0.645900
vt 0.802600 0.711300
vt 0.940300 0.711300
vt 0.846000 0.711300
vt 0.802600 0.645900
vt 0.802600 0.711300
vt 0.845900 0.537200
vt 0.940300 0.537200
vt 0.965000 0.775100
vt 0.991400 0.775100
vt 0.991400 0.732000
vt 0.965000 0.732000
vt 0.890100 0.727100
vt 0.885200 0.732000
vt 0.885200 0.775100
vt 0.890100 0.780000
vt 0.960100 0.780000
vt 0.960100 0.727100
vt 0.965000 0.655000
vt 0.965000 0.725000
vt 0.991400 0.725000
vt 0.991400 0.655000
vt 0.890100 0.780000
vt 0.885200 0.775100
vt 0.885200 0.732000
vt 0.890100 0.727100
vt 0.960100 0.727100
vt 0.965000 0.732000
vt 0.965000 0.775100
vt 0.960100 0.780000
vt 0.991400 0.648100
vt 0.965000 0.648100
vt 0.965000 0.782000
vt 0.991400 0.782000
vt 0.478700 0.757300
vt 0.478700 0.688700
vt 0.379600 0.688700
vt 0.379600 0.757300
vt 0.478700 0.810600
vt 0.478700 0.769100
vt 0.379600 0.769100
vt 0.379600 0.810600
vt 0.531200 0.757300
vt 0.489600 0.757300
vt 0.489600 0.688700
vt 0.531200 0.688700
vt 0.379600 0.640200
vt 0.379600 0.681700
vt 0.478700 0.681700
vt 0.478700 0.640200
vt 0.531200 0.688700
vt 0.489600 0.688700
vt 0.489600 0.757300
vt 0.531200 0.757300
vt 0.479900 0.821100
vt 0.489600 0.812500
vt 0.378500 0.821100
vt 0.369000 0.812500
vt 0.489600 0.638900
vt 0.479900 0.630300
vt 0.378500 0.630300
vt 0.369000 0.638900
vt 0.369000 0.757300
vt 0.369000 0.688700
vt 0.541700 0.757300
vt 0.541700 0.688700
vt 0.541700 0.688700
vt 0.541700 0.757300
vt 0.369000 0.770100
vt 0.489600 0.770100
vt 0.369000 0.681300
vt 0.489600 0.681300
vt 0.523700 0.872700
vt 0.580800 0.872700
vt 0.580800 0.837000
vt 0.523700 0.837000
vt 0.580800 0.767200
vt 0.523700 0.767200
vt 0.488000 0.837000
vt 0.616500 0.837000
vt 0.965000 0.782000
vt 0.991400 0.782000
# 973 texture coordinates

vn 0.000000 1.000000 0.000000
vn 0.000000 0.000000 1.000000
vn 1.000000 0.000000 0.000000
vn 0.000000 0.000000 -1.000000
vn -1.000000 0.000000 0.000000
vn -0.401027 0.916066 0.000000
vn 0.401027 0.916066 0.000000
vn 0.931311 -0.364224 0.000000
vn 0.931326 0.364187 0.000000
vn 0.734682 -0.678412 0.000000
vn -0.931326 0.364187 0.000000
vn 0.926494 -0.083386 0.366954
vn 0.926459 -0.083377 -0.367045
vn 0.698502 0.614320 -0.367023
vn 0.698524 0.614328 0.366967
vn -0.083337 -0.926484 0.366991
vn -0.083359 -0.926488 -0.366976
vn 0.614306 -0.698515 -0.367022
vn 0.614337 -0.698521 0.366959
vn -0.234884 -0.462862 -0.854745
vn -0.462876 0.234861 -0.854743
vn 0.234847 0.462832 -0.854771
vn 0.462804 -0.234868 -0.854780
vn -0.614353 0.698499 -0.366974
vn -0.614316 0.698502 0.367029
vn 0.083386 0.926478 0.366994
vn 0.083373 0.926474 -0.367007
vn -0.462798 0.234864 0.854785
vn -0.234824 -0.462848 0.854768
vn 0.462878 -0.234884 0.854736
vn 0.234893 0.462844 0.854752
vn -0.554250 -0.682437 0.476536
vn -0.554292 -0.682446 -0.476474
vn -0.850264 0.223473 0.476562
vn -0.850320 0.223462 -0.476466
vn 0.837821 -0.493436 -0.233615
vn 0.870336 -0.492459 -0.000088
vn 0.339614 -0.940565 0.000026
vn 0.339043 -0.847554 -0.408291
vn 0.842738 -0.332861 -0.423080
vn 0.336782 -0.586881 -0.736307
vn 0.833533 -0.115543 -0.540253
vn 0.333246 -0.209498 -0.919270
vn 0.831199 0.117097 -0.543504
vn 0.329106 0.210441 -0.920546
vn 0.836255 0.339778 -0.430383
vn 0.325175 0.589817 -0.739173
vn 0.828177 0.506740 -0.239454
vn 0.322253 0.852977 -0.410589
vn 0.862891 0.505390 0.000131
vn 0.320956 0.947094 0.000027
vn 0.827869 0.507040 0.239883
vn 0.321564 0.853167 0.410733
vn 0.835558 0.340123 0.431462
vn 0.323945 0.590054 0.739524
vn 0.830308 0.117200 0.544842
vn 0.327592 0.210546 0.921061
vn 0.832705 -0.115983 0.541434
vn 0.331753 -0.209604 0.919786
vn 0.842083 -0.333760 0.423674
vn 0.335600 -0.587118 0.736658
vn 0.837367 -0.494133 0.233771
vn 0.338392 -0.847744 0.408436
vn 0.993214 0.109381 0.039530
vn 0.993231 0.109612 -0.038434
vn 0.975042 0.127466 0.181787
vn 0.993776 -0.000525 0.111393
vn 0.975383 -0.127672 0.179802
vn 0.993438 -0.107892 0.037952
vn 0.993432 -0.107579 -0.038980
vn 0.975420 -0.126346 -0.180536
vn 0.993794 0.000710 -0.111236
vn 0.975080 0.128620 -0.180764
vn 0.999999 0.001443 0.000120
vn 0.214360 -0.845894 -0.488378
vn 0.214357 0.000007 -0.976756
vn 0.214366 -0.845891 0.488380
vn 0.214367 0.000007 0.976753
vn 0.214365 0.845895 0.488374
vn 0.214359 0.845898 -0.488372
vn 0.995175 -0.084886 -0.049199
vn 0.995162 0.000101 -0.098252
vn 1.000000 0.000021 -0.000159
vn 0.995195 0.084796 0.048960
vn 0.995209 -0.000069 0.097776
vn 0.995171 0.085018 -0.049053
vn 0.995199 -0.084832 0.048816
vn -0.339614 -0.940565 0.000026
vn -0.339043 -0.847554 -0.408291
vn -0.336782 -0.586881 -0.736307
vn -0.333246 -0.209498 -0.919270
vn -0.329106 0.210441 -0.920546
vn -0.322253 0.852977 -0.410589
vn -0.320956 0.947094 0.000027
vn -0.321564 0.853167 0.410733
vn -0.323945 0.590054 0.739524
vn -0.905733 -0.381823 -0.184010
vn -0.828981 -0.559277 0.000036
vn -0.904748 -0.265382 -0.333171
vn -0.903201 -0.095197 -0.418528
vn -0.901375 0.096693 -0.422106
vn -0.899630 0.272468 -0.341214
vn -0.325175 0.589817 -0.739173
vn -0.898326 0.395894 -0.190466
vn -0.813608 0.581415 0.000037
vn -0.898017 0.396441 0.190785
vn -0.899081 0.273145 0.342119
vn -0.900704 0.096992 0.423468
vn -0.327592 0.210546 0.921061
vn -0.902544 -0.095491 0.419876
vn -0.331753 -0.209604 0.919786
vn -0.904232 -0.266038 0.334049
vn -0.335600 -0.587118 0.736658
vn -0.905450 -0.382345 0.184317
vn -0.338392 -0.847744 0.408436
vn -0.837821 -0.493436 -0.233615
vn -0.870336 -0.492459 -0.000088
vn -0.842738 -0.332861 -0.423080
vn -0.833533 -0.115543 -0.540253
vn -0.831199 0.117097 -0.543504
vn -0.836255 0.339778 -0.430383
vn -0.828177 0.506740 -0.239454
vn -0.862891 0.505390 0.000131
vn -0.827869 0.507040 0.239883
vn -0.835558 0.340123 0.431462
vn -0.830308 0.117200 0.544842
vn -0.832705 -0.115983 0.541434
vn -0.842083 -0.333760 0.423674
vn -0.837367 -0.494133 0.233771
vn -0.993231 0.109612 -0.038434
vn -0.993214 0.109381 0.039530
vn -0.975042 0.127466 0.181787
vn -0.993776 -0.000525 0.111393
vn -0.975383 -0.127672 0.179802
vn -0.993438 -0.107892 0.037952
vn -0.993432 -0.107579 -0.038980
vn -0.975420 -0.126346 -0.180536
vn -0.993794 0.000710 -0.111236
vn -0.975080 0.128620 -0.180764
vn -0.999999 0.001443 0.000120
vn -0.214360 -0.845894 -0.488378
vn -0.214357 0.000007 -0.976756
vn -0.214366 -0.845891 0.488380
vn -0.214367 0.000007 0.976753
vn -0.214365 0.845895 0.488374
vn -0.214359 0.845898 -0.488372
vn -0.995175 -0.084886 -0.049199
vn -1.000000 0.000021 -0.000159
vn -0.995162 0.000101 -0.098252
vn -0.995195 0.084796 0.048960
vn -0.995209 -0.000069 0.097776
vn -0.995171 0.085018 -0.049053
vn -0.995199 -0.084832 0.048816
vn 0.905733 -0.381823 -0.184010
vn 0.828981 -0.559277 0.000036
vn 0.904748 -0.265382 -0.333171
vn 0.903201 -0.095197 -0.418528
vn 0.901375 0.096693 -0.422106
vn 0.899630 0.272468 -0.341214
vn 0.898326 0.395894 -0.190466
vn 0.813607 0.581415 0.000037
vn 0.898017 0.396441 0.190785
vn 0.899081 0.273145 0.342119
vn 0.900704 0.096992 0.423468
vn 0.902544 -0.095491 0.419876
vn 0.904232 -0.266038 0.334049
vn 0.905450 -0.382345 0.184317
vn 0.000000 -0.707107 -0.707107
vn 0.000000 -0.707107 0.707107
vn 0.000000 0.707107 0.707107
vn 0.000000 0.707107 -0.707107
vn 0.000000 0.912743 -0.408534
vn 0.000000 0.666200 -0.745773
vn 0.950543 0.310593 -0.000030
vn 0.950543 0.310593 -0.000030
vn 0.950543 0.310593 -0.000030
vn 0.000000 -0.347616 0.937637
vn 0.990467 -0.137753 0.000012
vn 0.000000 -0.231321 -0.972878
vn -0.950543 0.310593 -0.000030
vn -0.950543 0.310593 -0.000030
vn -0.950543 0.310593 -0.000030
vn -0.990466 -0.137759 0.000012
vn -0.000965 0.666714 0.745313
vn 0.000035 0.667056 0.745007
vn 0.000184 0.667574 0.744543
vn -0.965492 0.173457 0.194261
vn 0.000000 -0.675269 0.737572
vn 0.965590 0.173499 0.193740
vn -0.000427 0.808181 -0.588935
vn -1.000000 0.000000 0.000000
vn 0.000000 0.230397 0.973097
vn 0.000000 -0.201091 -0.979572
vn 1.000000 0.000000 0.000000
vn 0.000006 0.670037 -0.742328
vn -0.000003 0.670032 -0.742332
vn 0.000000 0.908844 0.417136
vn 0.000000 0.148370 -0.988932
vn 0.000000 0.672948 -0.739690
vn 0.000000 0.994659 -0.103213
vn 0.000000 -0.704905 -0.709302
vn 0.000000 0.656189 -0.754597
vn 0.000000 -0.215437 -0.976518
vn 0.000000 -0.704905 -0.709302
vn 0.000000 -0.215437 -0.976518
vn 0.000270 0.666579 0.745434
vn 0.000270 0.666579 0.745434
vn 0.000270 0.666579 0.745434
vn 0.000000 -0.347794 0.937571
vn 0.000000 0.946459 0.322825
vn -0.405658 0.000000 -0.914025
vn -0.933157 0.000000 -0.359470
vn -0.783889 0.554350 -0.279668
vn -0.347191 0.590927 -0.728192
vn -0.953672 0.000000 0.300849
vn -0.461615 0.000000 0.887080
vn -0.373006 0.594096 0.712682
vn -0.797933 0.552025 0.242014
vn -0.173215 0.936616 -0.304543
vn -0.384715 0.923015 -0.006203
vn -0.168699 0.933057 0.317720
vn 0.373007 0.594095 0.712683
vn 0.168701 0.933056 0.317721
vn 0.461615 0.000000 0.887080
vn 0.405658 0.000000 -0.914025
vn 0.347192 0.590926 -0.728192
vn 0.783891 0.554347 -0.279668
vn 0.933157 0.000000 -0.359470
vn 0.953672 0.000000 0.300849
vn 0.797935 0.552023 0.242014
vn 0.173217 0.936615 -0.304545
vn 0.384720 0.923013 -0.006203
vn 0.077546 0.955048 0.286130
vn 0.245391 0.959152 0.140748
vn -0.140744 0.959154 0.245387
vn 0.140743 0.959154 -0.245386
vn 0.611873 0.462952 -0.641317
vn 0.244615 0.462953 -0.851962
vn -0.228619 0.485897 -0.843586
vn -0.077543 0.955050 -0.286122
vn -0.641323 0.462957 -0.611863
vn -0.245388 0.959154 -0.140740
vn -0.851965 0.462952 -0.244604
vn -0.843590 0.485891 0.228619
vn -0.214745 0.974935 0.058197
vn -0.611873 0.462952 0.641317
vn -0.244606 0.462957 0.851962
vn 0.228629 0.485891 0.843587
vn 0.641320 0.462944 0.611876
vn 0.851963 0.462949 0.244616
vn 0.214739 0.974936 -0.058196
vn 0.843587 0.485896 -0.228619
vn 0.000011 -1.000000 0.000016
vn 0.000000 0.998227 0.059523
vn 0.995035 0.022039 0.097060
vn 0.995035 0.022039 0.097060
vn 0.995035 0.022039 0.097060
vn 0.995035 0.022039 0.097060
vn 0.552646 0.830221 0.072909
vn -0.995036 0.022046 0.097039
vn -0.995036 0.022046 0.097039
vn -0.995036 0.022046 0.097039
vn -0.995036 0.022046 0.097039
vn -0.552648 0.830222 0.072890
vn 0.924012 -0.382364 0.000000
vn 0.383003 -0.923747 0.000000
vn -0.382350 -0.924018 0.000000
vn -0.923742 -0.383017 0.000000
vn -0.924012 0.382364 0.000000
vn -0.383003 0.923747 -0.000000
vn -0.383003 0.923747 -0.000000
vn 0.382343 0.924021 0.000001
vn 0.923738 0.383024 0.000001
vn 0.000000 0.000000 1.000000
vn 0.952575 0.161104 -0.258159
vn 0.695878 0.161103 -0.699857
vn 0.576986 0.574765 -0.580286
vn 0.816940 0.541158 -0.199392
vn 0.252719 0.161101 -0.954033
vn 0.194728 0.541157 -0.818065
vn -0.258155 0.161102 -0.952577
vn -0.199390 0.541159 -0.816940
vn -0.699860 0.161105 -0.695874
vn -0.580288 0.574768 -0.576982
vn -0.954034 0.161106 -0.252715
vn -0.818064 0.541160 -0.194723
vn -0.952575 0.161107 0.258158
vn -0.816940 0.541159 0.199392
vn -0.695874 0.161107 0.699860
vn -0.576985 0.574766 0.580288
vn -0.252721 0.161105 0.954032
vn -0.194731 0.541161 0.818062
vn 0.258156 0.161103 0.952576
vn 0.199388 0.541162 0.816938
vn 0.699859 0.161102 0.695876
vn 0.580287 0.574765 0.576985
vn 0.954033 0.161104 0.252717
vn 0.818065 0.541158 0.194726
vn -0.329828 0.944041 0.000942
vn -0.178446 0.967445 0.179467
vn 0.179466 0.967445 0.178444
vn 0.329827 0.944041 -0.000941
vn 0.178445 0.967445 -0.179466
vn -0.001169 0.912101 -0.409963
vn -0.179466 0.967445 -0.178443
vn 0.001167 0.912102 0.409961
vn 0.923566 0.000000 0.383441
vn 0.924193 0.000000 -0.381926
vn 0.383441 0.000000 -0.923566
vn -0.381926 0.000000 -0.924193
vn -0.923566 0.000000 -0.383441
vn -0.924193 0.000000 0.381926
vn -0.383441 0.000000 0.923566
vn 0.381926 0.000000 0.924193
vn 0.381926 0.000000 0.924193
vn -0.931311 -0.364224 0.000000
vn -0.734682 -0.678412 0.000000
vn -0.926494 -0.083386 0.366954
vn -0.698524 0.614328 0.366967
vn -0.698502 0.614320 -0.367023
vn -0.926459 -0.083377 -0.367045
vn 0.083337 -0.926484 0.366991
vn -0.614337 -0.698521 0.366959
vn -0.614306 -0.698515 -0.367022
vn 0.083359 -0.926488 -0.366976
vn 0.234884 -0.462862 -0.854745
vn -0.462804 -0.234868 -0.854780
vn -0.234847 0.462832 -0.854771
vn 0.462876 0.234861 -0.854743
vn 0.614353 0.698499 -0.366974
vn -0.083373 0.926474 -0.367007
vn -0.083386 0.926478 0.366994
vn 0.614316 0.698502 0.367029
vn 0.462798 0.234864 0.854785
vn -0.234893 0.462844 0.854752
vn -0.462878 -0.234884 0.854736
vn 0.234824 -0.462848 0.854768
vn 0.554250 -0.682437 0.476536
vn 0.554292 -0.682446 -0.476474
vn 0.850264 0.223473 0.476562
vn 0.850320 0.223462 -0.476466
# 341 normals

usemtl Material__214
f 1/1/1 2/2/1 3/3/1 4/4/1
f 5/5/2 6/6/2 2/7/2 1/8/2
f 6/9/3 7/10/3 3/3/3 2/2/3
f 7/10/4 8/11/4 4/12/4 3/3/4
f 8/13/5 5/14/5 1/1/5 4/4/5
f 9/15/6 10/16/7 11/17/7 12/18/6
f 10/16/2 9/15/2 13/19/2 14/20/2 15/21/2 16/22/2 17/23/2 18/24/2
f 17/25/8 19/26/8 20/27/9 18/28/9
f 12/29/4 11/30/4 20/31/4 19/32/4 21/33/4 22/34/4 23/35/4 24/36/4
f 21/37/10 19/26/8 17/25/8 16/38/10
f 10/16/7 18/28/9 20/27/9 11/17/7
f 12/18/6 24/39/11 13/40/11 9/15/6
f 25/41/12 26/42/13 27/43/14 28/44/15
f 29/45/16 30/46/17 31/47/18 32/48/19
f 33/49/20 34/50/21 35/51/22 36/52/23
f 37/53/24 38/54/25 39/55/26 40/56/27
f 41/57/28 42/58/29 43/59/30 44/60/31
f 29/45/16 42/61/29 45/62/32
f 46/63/33 33/64/20 30/46/17
f 41/65/28 38/54/25 47/66/34
f 48/67/35 37/53/24 34/68/21
f 32/48/19 25/41/12 43/59/30
f 36/69/23 26/42/13 31/47/18
f 44/60/31 28/44/15 39/55/26
f 40/56/27 27/43/14 35/70/22
f 45/71/32 42/58/29 41/57/28 47/72/34
f 47/66/34 38/54/25 37/53/24 48/67/35
f 48/73/35 34/50/21 33/49/20 46/74/33
f 46/63/33 30/46/17 29/45/16 45/62/32
f 25/41/12 32/48/19 31/47/18 26/42/13
f 26/42/13 36/69/23 35/70/22 27/43/14
f 27/43/14 40/56/27 39/55/26 28/44/15
f 28/44/15 44/60/31 43/59/30 25/41/12
f 30/46/17 33/64/20 36/75/23 31/47/18
f 32/48/19 43/76/30 42/61/29 29/45/16
f 34/68/21 37/53/24 40/56/27 35/77/22
f 38/54/25 41/65/28 44/78/31 39/55/26
f 49/79/1 50/80/1 51/81/1 52/82/1
f 51/81/3 50/80/3 53/83/3 54/84/3
f 50/80/2 49/85/2 53/83/2
f 52/86/4 51/81/4 54/84/4
f 13/40/11 24/39/11 55/87/5 56/88/5
f 57/89/36 58/90/37 59/91/38 60/92/39
f 61/93/40 57/89/36 60/92/39 62/94/41
f 63/95/42 61/93/40 62/94/41 64/96/43
f 65/97/44 63/95/42 64/96/43 66/98/45
f 67/99/46 65/97/44 66/98/45 68/100/47
f 69/101/48 67/99/46 68/100/47 70/102/49
f 71/103/50 69/101/48 70/102/49 72/104/51
f 73/105/52 71/103/50 72/104/51 74/106/53
f 75/107/54 73/105/52 74/106/53 76/108/55
f 77/109/56 75/107/54 76/108/55 78/110/57
f 79/111/58 77/109/56 78/110/57 80/112/59
f 81/113/60 79/111/58 80/112/59 82/114/61
f 83/115/62 81/113/60 82/114/61 84/116/63
f 58/117/37 83/115/62 84/116/63 59/118/38
f 58/117/37 85/119/64 86/120/65
f 57/89/36 61/93/40 87/121/66 85/122/64
f 61/93/40 63/95/42 88/123/67 87/121/66
f 63/95/42 65/97/44 88/123/67
f 65/97/44 67/99/46 89/124/68 88/123/67
f 67/99/46 69/101/48 90/125/69 89/124/68
f 69/101/48 71/103/50 90/125/69
f 71/103/50 91/126/70 90/125/69
f 73/105/52 75/107/54 92/127/71 91/126/70
f 75/107/54 77/109/56 93/128/72 92/127/71
f 77/109/56 79/111/58 93/128/72
f 79/111/58 81/113/60 94/129/73 93/128/72
f 81/113/60 83/115/62 86/120/65 94/129/73
f 83/115/62 58/117/37 86/120/65
f 86/130/65 85/131/64 95/132/74
f 85/131/64 87/133/66 95/132/74
f 87/133/66 88/134/67 95/132/74
f 88/134/67 89/135/68 95/132/74
f 89/135/68 90/136/69 95/132/74
f 90/136/69 91/137/70 95/132/74
f 91/137/70 92/138/71 95/132/74
f 92/138/71 93/139/72 95/132/74
f 93/139/72 94/140/73 95/132/74
f 86/130/65 95/132/74 94/140/73
f 71/103/50 73/105/52 91/126/70
f 58/90/37 57/89/36 85/122/64
f 96/141/75 97/142/75 98/143/76 99/144/76
f 100/145/77 101/146/77 97/142/75 96/141/75
f 102/147/78 103/148/78 101/146/77 100/145/77
f 104/149/79 105/150/79 103/148/78 102/147/78
f 106/151/80 107/152/80 105/150/79 104/149/79
f 99/144/76 98/143/76 107/152/80 106/151/80
f 104/149/3 102/147/3 99/144/3 106/151/3
f 100/145/3 96/141/3 99/144/3 102/147/3
f 108/153/81 109/154/82 110/155/83
f 111/156/84 112/157/85 110/155/83
f 110/155/83 109/154/82 113/158/86
f 110/155/83 112/157/85 114/159/87
f 110/155/83 114/159/87 108/153/81
f 110/155/83 113/158/86 111/156/84
f 59/91/38 115/160/88 116/161/89 60/92/39
f 62/94/41 60/92/39 116/161/89 117/162/90
f 64/96/43 118/163/91 119/164/92 66/98/45
f 72/104/51 70/102/49 120/165/93 121/166/94
f 74/106/53 72/104/51 121/166/94 122/167/95
f 76/108/55 74/106/53 122/167/95 123/168/96
f 124/169/97 116/161/89 115/160/88 125/170/98
f 126/171/99 117/162/90 116/161/89 124/169/97
f 127/172/100 118/163/91 117/162/90 126/171/99
f 128/173/101 119/164/92 118/163/91 127/172/100
f 129/174/102 130/175/103 119/164/92 128/173/101
f 131/176/104 120/165/93 130/175/103 129/174/102
f 132/177/105 121/166/94 120/165/93 131/176/104
f 133/178/106 122/167/95 121/166/94 132/177/105
f 134/179/107 123/168/96 122/167/95 133/178/106
f 135/180/108 136/181/109 123/168/96 134/179/107
f 137/182/110 138/183/111 136/181/109 135/180/108
f 139/184/112 140/185/113 138/183/111 137/182/110
f 141/186/114 142/187/115 140/185/113 139/184/112
f 125/188/98 115/189/88 142/187/115 141/186/114
f 141/190/114 139/191/112 126/192/99 124/193/97
f 64/96/43 62/94/41 117/162/90 118/163/91
f 68/100/47 66/98/45 119/164/92 130/175/103
f 68/100/47 130/175/103 120/165/93 70/102/49
f 76/108/55 123/168/96 136/181/109 78/110/57
f 78/110/57 136/181/109 138/183/111 80/112/59
f 80/112/59 138/183/111 140/185/113 82/114/61
f 82/114/61 140/185/113 142/187/115 84/116/63
f 84/116/63 142/187/115 115/189/88 59/118/38
f 134/194/107 129/195/102 128/196/101 135/197/108
f 135/197/108 128/196/101 127/198/100 137/199/110
f 137/199/110 127/198/100 126/192/99 139/191/112
f 133/200/106 131/201/104 129/195/102 134/194/107
f 133/200/106 132/202/105 131/201/104
f 124/193/97 125/203/98 141/190/114
f 143/204/36 144/205/37 145/206/38 146/207/39
f 147/208/40 143/204/36 146/207/39 148/209/41
f 149/210/42 147/208/40 148/209/41 150/211/43
f 151/212/44 149/210/42 150/211/43 152/213/45
f 153/214/46 151/212/44 152/213/45 154/215/47
f 155/216/48 153/214/46 154/215/47 156/217/49
f 157/218/50 155/216/48 156/217/49 158/219/51
f 159/220/52 157/218/50 158/219/51 160/221/53
f 161/222/54 159/220/52 160/221/53 162/223/55
f 163/224/56 161/222/54 162/223/55 164/225/57
f 165/226/58 163/224/56 164/225/57 166/227/59
f 167/228/60 165/226/58 166/227/59 168/229/61
f 169/230/62 167/228/60 168/229/61 170/231/63
f 144/232/37 169/230/62 170/231/63 145/233/38
f 144/232/37 171/234/64 172/235/65
f 143/204/36 147/208/40 173/236/66 171/237/64
f 147/208/40 149/210/42 174/238/67 173/236/66
f 149/210/42 151/212/44 174/238/67
f 151/212/44 153/214/46 175/239/68 174/238/67
f 153/214/46 155/216/48 176/240/69 175/239/68
f 155/216/48 157/218/50 176/240/69
f 157/218/50 177/241/70 176/240/69
f 159/220/52 161/222/54 178/242/71 177/241/70
f 161/222/54 163/224/56 179/243/72 178/242/71
f 163/224/56 165/226/58 179/243/72
f 165/226/58 167/228/60 180/244/73 179/243/72
f 167/228/60 169/230/62 172/235/65 180/244/73
f 169/230/62 144/232/37 172/235/65
f 172/245/65 171/246/64 181/247/74
f 171/246/64 173/248/66 181/247/74
f 173/248/66 174/249/67 181/247/74
f 174/249/67 175/250/68 181/247/74
f 175/250/68 176/251/69 181/247/74
f 176/251/69 177/252/70 181/247/74
f 177/252/70 178/253/71 181/247/74
f 178/253/71 179/254/72 181/247/74
f 179/254/72 180/255/73 181/247/74
f 172/245/65 181/247/74 180/255/73
f 157/218/50 159/220/52 177/241/70
f 144/205/37 143/204/36 171/237/64
f 182/256/75 183/257/75 184/258/76 185/259/76
f 186/260/77 187/261/77 183/257/75 182/256/75
f 188/262/78 189/263/78 187/261/77 186/260/77
f 190/264/79 191/265/79 189/263/78 188/262/78
f 192/266/80 193/267/80 191/265/79 190/264/79
f 185/259/76 184/258/76 193/267/80 192/266/80
f 190/264/3 188/262/3 185/259/3 192/266/3
f 186/260/3 182/256/3 185/259/3 188/262/3
f 194/268/81 195/269/82 196/270/83
f 197/271/84 198/272/85 196/270/83
f 196/270/83 195/269/82 199/273/86
f 196/270/83 198/272/85 200/274/87
f 196/270/83 200/274/87 194/268/81
f 196/270/83 199/273/86 197/271/84
f 145/206/38 201/275/88 202/276/89 146/207/39
f 148/209/41 146/207/39 202/276/89 203/277/90
f 150/211/43 204/278/91 205/279/92 152/213/45
f 158/219/51 156/217/49 206/280/93 207/281/94
f 160/221/53 158/219/51 207/281/94 208/282/95
f 162/223/55 160/221/53 208/282/95 209/283/96
f 210/284/97 202/276/89 201/275/88 211/285/98
f 212/286/99 203/277/90 202/276/89 210/284/97
f 213/287/100 204/278/91 203/277/90 212/286/99
f 214/288/101 205/279/92 204/278/91 213/287/100
f 215/289/102 216/290/103 205/279/92 214/288/101
f 217/291/104 206/280/93 216/290/103 215/289/102
f 218/292/105 207/281/94 206/280/93 217/291/104
f 219/293/106 208/282/95 207/281/94 218/292/105
f 220/294/107 209/283/96 208/282/95 219/293/106
f 221/295/108 222/296/109 209/283/96 220/294/107
f 223/297/110 224/298/111 222/296/109 221/295/108
f 225/299/112 226/300/113 224/298/111 223/297/110
f 227/301/114 228/302/115 226/300/113 225/299/112
f 211/303/98 201/304/88 228/302/115 227/301/114
f 227/305/114 225/306/112 212/307/99 210/308/97
f 150/211/43 148/209/41 203/277/90 204/278/91
f 154/215/47 152/213/45 205/279/92 216/290/103
f 154/215/47 216/290/103 206/280/93 156/217/49
f 162/223/55 209/283/96 222/296/109 164/225/57
f 164/225/57 222/296/109 224/298/111 166/227/59
f 166/227/59 224/298/111 226/300/113 168/229/61
f 168/229/61 226/300/113 228/302/115 170/231/63
f 170/231/63 228/302/115 201/304/88 145/233/38
f 220/309/107 215/310/102 214/311/101 221/312/108
f 221/312/108 214/311/101 213/313/100 223/314/110
f 223/314/110 213/313/100 212/307/99 225/306/112
f 219/315/106 217/316/104 215/310/102 220/309/107
f 219/315/106 218/317/105 217/316/104
f 210/308/97 211/318/98 227/305/114
f 229/319/116 230/320/89 231/321/88 232/322/117
f 233/323/118 234/324/90 230/320/89 229/319/116
f 235/325/119 236/326/91 234/324/90 233/323/118
f 237/327/120 238/328/92 236/326/91 235/325/119
f 239/329/121 240/330/103 238/328/92 237/327/120
f 241/331/122 242/332/93 240/330/103 239/329/121
f 243/333/123 244/334/94 242/332/93 241/331/122
f 245/335/124 246/336/95 244/334/94 243/333/123
f 247/337/125 248/338/96 246/336/95 245/335/124
f 249/339/126 250/340/109 248/338/96 247/337/125
f 251/341/127 252/342/111 250/340/109 249/339/126
f 253/343/128 254/344/113 252/342/111 251/341/127
f 255/345/129 256/346/115 254/344/113 253/343/128
f 232/347/117 231/348/88 256/346/115 255/345/129
f 232/347/117 257/349/130 258/350/131
f 229/319/116 258/351/131 259/352/132 233/323/118
f 233/323/118 259/352/132 260/353/133 235/325/119
f 235/325/119 260/353/133 237/327/120
f 237/327/120 260/353/133 261/354/134 239/329/121
f 239/329/121 261/354/134 262/355/135 241/331/122
f 241/331/122 262/355/135 243/333/123
f 243/333/123 262/355/135 263/356/136
f 245/335/124 263/356/136 264/357/137 247/337/125
f 247/337/125 264/357/137 265/358/138 249/339/126
f 249/339/126 265/358/138 251/341/127
f 251/341/127 265/358/138 266/359/139 253/343/128
f 253/343/128 266/359/139 257/349/130 255/345/129
f 255/345/129 257/349/130 232/347/117
f 257/360/130 267/361/140 258/362/131
f 258/362/131 267/361/140 259/363/132
f 259/363/132 267/361/140 260/364/133
f 260/364/133 267/361/140 261/365/134
f 261/365/134 267/361/140 262/366/135
f 262/366/135 267/361/140 263/367/136
f 263/367/136 267/361/140 264/368/137
f 264/368/137 267/361/140 265/369/138
f 265/369/138 267/361/140 266/370/139
f 257/360/130 266/370/139 267/361/140
f 243/333/123 263/356/136 245/335/124
f 232/322/117 258/351/131 229/319/116
f 268/371/141 269/372/142 270/373/142 271/374/141
f 272/375/143 268/371/141 271/374/141 273/376/143
f 274/377/144 272/375/143 273/376/143 275/378/144
f 276/379/145 274/377/144 275/378/144 277/380/145
f 278/381/146 276/379/145 277/380/145 279/382/146
f 269/372/142 278/381/146 279/382/146 270/373/142
f 276/379/5 278/381/5 269/372/5 274/377/5
f 272/375/5 274/377/5 269/372/5 268/371/5
f 280/383/147 281/384/148 282/385/149
f 283/386/150 281/384/148 284/387/151
f 281/384/148 285/388/152 282/385/149
f 281/384/148 286/389/153 284/387/151
f 281/384/148 280/383/147 286/389/153
f 281/384/148 283/386/150 285/388/152
f 231/321/88 230/320/89 287/390/39 288/391/38
f 234/324/90 289/392/41 287/390/39 230/320/89
f 236/326/91 238/328/92 290/393/45 291/394/43
f 244/334/94 292/395/51 293/396/49 242/332/93
f 246/336/95 294/397/53 292/395/51 244/334/94
f 248/338/96 295/398/55 294/397/53 246/336/95
f 296/399/154 297/400/155 288/391/38 287/390/39
f 298/401/156 296/399/154 287/390/39 289/392/41
f 299/402/157 298/401/156 289/392/41 291/394/43
f 300/403/158 299/402/157 291/394/43 290/393/45
f 301/404/159 300/403/158 290/393/45 302/405/47
f 303/406/160 301/404/159 302/405/47 293/396/49
f 304/407/161 303/406/160 293/396/49 292/395/51
f 305/408/162 304/407/161 292/395/51 294/397/53
f 306/409/163 305/408/162 294/397/53 295/398/55
f 307/410/164 306/409/163 295/398/55 308/411/57
f 309/412/165 307/410/164 308/411/57 310/413/59
f 311/414/166 309/412/165 310/413/59 312/415/61
f 313/416/167 311/414/166 312/415/61 314/417/63
f 297/418/155 313/416/167 314/417/63 288/419/38
f 313/420/167 296/421/154 298/422/156 311/423/166
f 236/326/91 291/394/43 289/392/41 234/324/90
f 240/330/103 302/405/47 290/393/45 238/328/92
f 240/330/103 242/332/93 293/396/49 302/405/47
f 248/338/96 250/340/109 308/411/57 295/398/55
f 250/340/109 252/342/111 310/413/59 308/411/57
f 252/342/111 254/344/113 312/415/61 310/413/59
f 254/344/113 256/346/115 314/417/63 312/415/61
f 256/346/115 231/348/88 288/419/38 314/417/63
f 306/424/163 307/425/164 300/426/158 301/427/159
f 307/425/164 309/428/165 299/429/157 300/426/158
f 309/428/165 311/423/166 298/422/156 299/429/157
f 305/430/162 306/424/163 301/427/159 303/431/160
f 305/430/162 303/431/160 304/432/161
f 296/421/154 313/420/167 297/433/155
f 315/434/116 316/435/89 317/436/88 318/437/117
f 319/438/118 320/439/90 316/435/89 315/434/116
f 321/440/119 322/441/91 320/439/90 319/438/118
f 323/442/120 324/443/92 322/441/91 321/440/119
f 325/444/121 326/445/103 324/443/92 323/442/120
f 327/446/122 328/447/93 326/445/103 325/444/121
f 329/448/123 330/449/94 328/447/93 327/446/122
f 331/450/124 332/451/95 330/449/94 329/448/123
f 333/452/125 334/453/96 332/451/95 331/450/124
f 335/454/126 336/455/109 334/453/96 333/452/125
f 337/456/127 338/457/111 336/455/109 335/454/126
f 339/458/128 340/459/113 338/457/111 337/456/127
f 341/460/129 342/461/115 340/459/113 339/458/128
f 318/462/117 317/463/88 342/461/115 341/460/129
f 318/462/117 343/464/130 344/465/131
f 315/434/116 344/466/131 345/467/132 319/438/118
f 319/438/118 345/467/132 346/468/133 321/440/119
f 321/440/119 346/468/133 323/442/120
f 323/442/120 346/468/133 347/469/134 325/444/121
f 325/444/121 347/469/134 348/470/135 327/446/122
f 327/446/122 348/470/135 329/448/123
f 329/448/123 348/470/135 349/471/136
f 331/450/124 349/471/136 350/472/137 333/452/125
f 333/452/125 350/472/137 351/473/138 335/454/126
f 335/454/126 351/473/138 337/456/127
f 337/456/127 351/473/138 352/474/139 339/458/128
f 339/458/128 352/474/139 343/464/130 341/460/129
f 341/460/129 343/464/130 318/462/117
f 343/475/130 353/476/140 344/477/131
f 344/477/131 353/476/140 345/478/132
f 345/478/132 353/476/140 346/479/133
f 346/479/133 353/476/140 347/480/134
f 347/480/134 353/476/140 348/481/135
f 348/481/135 353/476/140 349/482/136
f 349/482/136 353/476/140 350/483/137
f 350/483/137 353/476/140 351/484/138
f 351/484/138 353/476/140 352/485/139
f 343/475/130 352/485/139 353/476/140
f 329/448/123 349/471/136 331/450/124
f 318/437/117 344/466/131 315/434/116
f 354/486/141 355/487/142 356/488/142 357/489/141
f 358/490/143 354/486/141 357/489/141 359/491/143
f 360/492/144 358/490/143 359/491/143 361/493/144
f 362/494/145 360/492/144 361/493/144 363/495/145
f 364/496/146 362/494/145 363/495/145 365/497/146
f 355/487/142 364/496/146 365/497/146 356/488/142
f 362/494/5 364/496/5 355/487/5 360/492/5
f 358/490/5 360/492/5 355/487/5 354/486/5
f 366/498/147 367/499/148 368/500/149
f 369/501/150 367/499/148 370/502/151
f 367/499/148 371/503/152 368/500/149
f 367/499/148 372/504/153 370/502/151
f 367/499/148 366/498/147 372/504/153
f 367/499/148 369/501/150 371/503/152
f 317/436/88 316/435/89 373/505/39 374/506/38
f 320/439/90 375/507/41 373/505/39 316/435/89
f 322/441/91 324/443/92 376/508/45 377/509/43
f 330/449/94 378/510/51 379/511/49 328/447/93
f 332/451/95 380/512/53 378/510/51 330/449/94
f 334/453/96 381/513/55 380/512/53 332/451/95
f 382/514/154 383/515/155 374/506/38 373/505/39
f 384/516/156 382/514/154 373/505/39 375/507/41
f 385/517/157 384/516/156 375/507/41 377/509/43
f 386/518/158 385/517/157 377/509/43 376/508/45
f 387/519/159 386/518/158 376/508/45 388/520/47
f 389/521/160 387/519/159 388/520/47 379/511/49
f 390/522/161 389/521/160 379/511/49 378/510/51
f 391/523/162 390/522/161 378/510/51 380/512/53
f 392/524/163 391/523/162 380/512/53 381/513/55
f 393/525/164 392/524/163 381/513/55 394/526/57
f 395/527/165 393/525/164 394/526/57 396/528/59
f 397/529/166 395/527/165 396/528/59 398/530/61
f 399/531/167 397/529/166 398/530/61 400/532/63
f 383/533/155 399/531/167 400/532/63 374/534/38
f 399/535/167 382/536/154 384/537/156 397/538/166
f 322/441/91 377/509/43 375/507/41 320/439/90
f 326/445/103 388/520/47 376/508/45 324/443/92
f 326/445/103 328/447/93 379/511/49 388/520/47
f 334/453/96 336/455/109 394/526/57 381/513/55
f 336/455/109 338/457/111 396/528/59 394/526/57
f 338/457/111 340/459/113 398/530/61 396/528/59
f 340/459/113 342/461/115 400/532/63 398/530/61
f 342/461/115 317/463/88 374/534/38 400/532/63
f 392/539/163 393/540/164 386/541/158 387/542/159
f 393/540/164 395/543/165 385/544/157 386/541/158
f 395/543/165 397/538/166 384/537/156 385/544/157
f 391/545/162 392/539/163 387/542/159 389/546/160
f 391/545/162 389/546/160 390/547/161
f 382/536/154 399/535/167 383/548/155
f 401/549/168 402/550/168 403/551/168 404/552/168
f 402/553/169 405/554/169 406/555/169 403/556/169
f 405/554/170 407/557/170 408/558/170 406/555/170
f 407/557/171 401/549/171 404/552/171 408/558/171
f 409/559/172 410/560/173 411/561/173 412/562/172
f 410/563/174 409/564/174 413/565/175 414/566/176
f 413/567/1 409/559/172 412/562/172 415/568/1
f 416/569/177 417/570/177 418/571/177 414/572/177
f 410/563/178 414/566/178 418/573/178 419/574/178
f 419/575/179 420/576/179 411/561/179 410/560/179
f 411/577/180 416/578/181 415/568/182 412/562/180
f 411/577/183 420/579/183 417/580/183 416/578/183
f 414/572/184 413/567/184 421/581/184 422/582/184
f 413/567/185 415/568/185 423/583/185 421/581/185
f 415/568/185 416/569/185 424/584/185 423/583/185
f 416/569/186 414/572/186 422/582/186 424/584/186
f 422/585/187 421/586/187 425/587/187
f 421/586/188 423/588/188 425/587/188
f 423/589/189 424/590/189 425/587/189
f 424/590/190 422/591/190 425/587/190
f 426/592/191 427/593/191 428/594/191 429/595/191 430/596/191
f 430/597/192 429/598/192 431/599/192 432/600/192
f 433/601/193 434/602/193 428/603/193 427/593/193
f 435/604/194 432/605/194 431/606/194 434/607/194 433/608/194
f 426/592/1 430/597/1 436/609/1 437/610/1
f 427/593/195 426/592/195 437/610/195 438/611/195
f 432/600/1 435/612/1 439/613/1 440/614/1
f 435/612/196 433/601/196 441/615/196 439/613/196
f 437/616/194 436/617/194 442/618/194 443/619/194 438/620/194
f 439/621/5 441/622/5 444/623/5 445/624/5 440/625/5
f 441/615/197 438/611/197 443/626/197 444/627/197
f 445/628/198 442/629/198 436/609/198 440/614/198
f 446/630/196 447/631/196 448/632/196 449/633/196
f 450/634/1 451/635/1 448/632/1 447/631/1
f 452/636/1 453/637/1 454/638/1 455/639/1
f 455/640/191 456/641/191 457/642/191 458/643/191 452/644/191
f 448/632/3 451/645/3 459/646/3 460/647/3 449/633/3
f 447/648/191 446/649/191 461/650/191 462/651/191 450/652/191
f 454/638/3 453/653/3 463/654/3 464/655/3 465/656/3
f 456/657/196 455/639/196 454/638/196 465/656/196
f 466/658/1 467/659/1 468/660/1 469/661/1
f 470/662/199 466/658/199 469/661/199 471/663/199
f 472/664/200 473/665/200 474/666/200 475/667/200
f 476/668/201 477/669/201 478/670/201 479/671/201
f 480/672/202 481/673/202 473/665/202 472/664/202
f 473/674/5 481/675/5 477/676/5 476/677/5 474/678/5
f 481/673/203 480/672/203 478/670/203 477/669/203
f 480/672/3 472/664/3 475/679/3 479/680/3 478/670/3
f 482/681/200 483/682/200 484/683/200 485/684/200
f 486/685/204 487/686/204 488/687/204 489/688/204
f 482/689/5 490/690/5 488/691/5 487/692/5 483/693/5
f 491/694/3 485/684/3 484/695/3 486/696/3 489/688/3
f 490/697/202 482/681/202 485/684/202 491/694/202
f 491/694/205 489/688/205 488/687/205 490/697/205
f 492/698/206 493/699/185 494/700/207 495/701/208
f 496/702/209 497/703/209 498/704/209 499/705/209
f 500/706/210 501/707/210 496/702/210 499/705/210
f 499/708/3 498/709/3 502/710/3 500/711/3
f 502/710/3 498/709/3 503/712/3
f 496/702/5 501/713/5 504/714/5 497/703/5
f 505/715/5 497/703/5 504/714/5
f 506/716/211 507/717/212 508/718/213 509/719/214
f 510/720/215 511/721/216 512/722/217 513/723/218
f 507/717/212 510/720/215 513/723/218 508/718/213
f 514/724/219 509/719/214 508/718/213 515/725/220
f 516/726/221 512/722/217 517/727/222 518/728/223
f 513/723/218 512/722/217 516/726/221 515/725/220
f 511/721/216 519/729/224 517/727/222 512/722/217
f 513/723/218 515/725/220 508/718/213
f 520/730/225 521/731/226 522/732/227 523/733/228
f 520/730/225 506/716/211 509/719/214 521/731/226
f 524/734/229 525/735/230 517/727/222 519/729/224
f 523/733/228 522/732/227 525/735/230 524/734/229
f 526/736/231 527/737/232 522/732/227 521/731/226
f 525/735/230 527/737/232 518/728/223 517/727/222
f 509/719/214 514/724/219 526/736/231 521/731/226
f 525/735/230 522/732/227 527/737/232
f 528/738/233 529/739/234 530/740/235
f 531/741/236 532/742/237 533/743/238
f 531/741/236 533/743/238 534/744/239 535/745/240
f 535/745/240 534/744/239 536/746/241 537/747/242
f 537/747/242 536/746/241 538/748/243
f 537/747/242 538/748/243 539/749/244 540/750/245
f 540/750/245 539/749/244 541/751/246 530/740/235
f 530/740/235 541/751/246 542/752/247
f 530/740/235 542/752/247 543/753/248 528/738/233
f 528/738/233 543/753/248 544/754/249 529/739/234
f 529/739/234 544/754/249 545/755/250
f 546/756/251 547/757/252 532/742/237 531/741/236
f 529/739/234 545/755/250 547/757/252 546/756/251
f 532/758/237 548/759/253 533/760/238
f 533/760/238 548/759/253 534/761/239
f 534/762/239 548/759/253 536/763/241
f 536/763/241 548/759/253 538/764/243
f 538/764/243 548/759/253 539/765/244
f 539/765/244 548/759/253 541/766/246
f 541/766/246 548/759/253 542/767/247
f 542/767/247 548/759/253 543/768/248
f 543/768/248 548/759/253 544/769/249
f 544/769/249 548/759/253 545/770/250
f 547/771/252 548/759/253 532/758/237
f 545/770/250 548/759/253 547/771/252
f 531/741/236 537/747/242 540/750/245 546/756/251
f 546/756/251 540/750/245 530/740/235 529/739/234
f 531/741/236 535/745/240 537/747/242
f 549/772/254 550/773/254 551/774/254 552/775/254
f 553/776/2 554/777/2 549/772/2 552/775/2
f 555/778/255 556/779/256 557/780/257 554/777/258
f 549/772/259 554/777/259 557/781/259 550/773/259
f 558/782/260 553/783/261 559/784/262 560/785/263
f 559/786/264 553/776/264 552/775/264 551/774/264
f 558/787/2 555/778/2 554/777/2 553/776/2
f 561/788/265 562/789/266 563/790/266 564/791/265
f 562/789/266 565/792/267 566/793/267 563/790/266
f 565/792/267 567/794/268 568/795/268 566/793/267
f 567/794/268 569/796/269 570/797/269 568/795/268
f 569/796/269 571/798/270 572/799/271 570/797/269
f 571/798/270 573/800/272 574/801/272 572/799/271
f 573/800/272 575/802/273 576/803/273 574/801/272
f 575/804/273 561/788/265 564/791/265 576/805/273
f 565/806/2 562/807/2 561/808/2 575/809/2 573/800/274 571/798/274 569/810/274 567/811/2
f 577/812/275 578/813/276 579/814/277 580/815/278
f 578/813/276 581/816/279 582/817/280 579/814/277
f 581/816/279 583/818/281 584/819/282 582/817/280
f 583/820/281 585/821/283 586/822/284 584/823/282
f 585/821/283 587/824/285 588/825/286 586/822/284
f 587/824/285 589/826/287 590/827/288 588/825/286
f 589/826/287 591/828/289 592/829/290 590/827/288
f 591/828/289 593/830/291 594/831/292 592/829/290
f 593/830/291 595/832/293 596/833/294 594/831/292
f 595/832/293 597/834/295 598/835/296 596/833/294
f 597/834/295 599/836/297 600/837/298 598/835/296
f 599/836/297 577/812/275 580/815/278 600/837/298
f 601/838/299 602/839/300 603/840/301 604/841/302
f 579/842/277 605/843/303 604/841/302 580/844/278
f 582/845/280 606/846/304 605/843/303 579/842/277
f 584/847/282 606/846/304 582/845/280
f 586/848/284 607/849/305 606/846/304 584/847/282
f 588/850/286 601/838/299 607/849/305 586/848/284
f 590/851/288 601/838/299 588/850/286
f 592/852/290 602/839/300 601/838/299 590/851/288
f 594/853/292 608/854/306 602/839/300 592/852/290
f 596/855/294 608/854/306 594/853/292
f 598/856/296 603/840/301 608/854/306 596/855/294
f 600/857/298 604/841/302 603/840/301 598/856/296
f 580/844/278 604/841/302 600/857/298
f 605/843/303 607/849/305 601/838/299 604/841/302
f 602/839/300 608/854/306 603/840/301
f 605/843/303 606/846/304 607/849/305
f 609/858/307 610/859/308 611/860/308 612/861/307
f 610/859/308 613/862/309 614/863/309 611/860/308
f 613/864/309 615/865/310 616/866/310 614/867/309
f 615/865/310 617/868/311 618/869/311 616/866/310
f 617/868/311 619/870/312 620/871/312 618/869/311
f 619/870/312 621/872/313 622/873/313 620/871/312
f 621/872/313 623/874/314 624/875/315 622/873/313
f 623/874/314 609/858/307 612/861/307 624/875/315
f 625/876/168 626/877/168 627/878/168 628/879/168
f 626/880/169 629/881/169 630/882/169 627/883/169
f 629/881/170 631/884/170 632/885/170 630/882/170
f 631/884/171 625/876/171 628/879/171 632/885/171
f 633/886/1 634/887/1 635/888/1 636/889/1
f 637/890/2 633/891/2 636/892/2 638/893/2
f 638/894/5 636/889/5 635/888/5 639/895/5
f 639/895/4 635/888/4 634/896/4 640/897/4
f 640/898/3 634/887/3 633/886/3 637/899/3
f 641/900/7 642/901/7 643/902/6 644/903/6
f 645/904/2 646/905/2 647/906/2 648/907/2 649/908/2 641/900/2 644/903/2 650/909/2
f 645/910/316 650/911/11 651/912/11 652/913/316
f 653/914/4 654/915/4 655/916/4 652/917/4 651/918/4 643/919/4 642/920/4 656/921/4
f 655/922/317 646/923/317 645/910/316 652/913/316
f 644/903/6 643/902/6 651/912/11 650/911/11
f 642/901/7 641/900/7 649/924/9 656/925/9
f 657/926/318 658/927/319 659/928/320 660/929/321
f 661/930/322 662/931/323 663/932/324 664/933/325
f 665/934/326 666/935/327 667/936/328 668/937/329
f 669/938/330 670/939/331 671/940/332 672/941/333
f 673/942/334 674/943/335 675/944/336 676/945/337
f 661/930/322 677/946/338 676/947/337
f 678/948/339 664/933/325 665/949/326
f 673/950/334 679/951/340 672/941/333
f 680/952/341 668/953/329 669/938/330
f 662/931/323 675/944/336 657/926/318
f 666/954/327 663/932/324 660/929/321
f 674/943/335 671/940/332 658/927/319
f 670/939/331 667/955/328 659/928/320
f 677/956/338 679/957/340 673/942/334 676/945/337
f 679/951/340 680/952/341 669/938/330 672/941/333
f 680/958/341 678/959/339 665/934/326 668/937/329
f 678/948/339 677/946/338 661/930/322 664/933/325
f 657/926/318 660/929/321 663/932/324 662/931/323
f 660/929/321 659/928/320 667/955/328 666/954/327
f 659/928/320 658/927/319 671/940/332 670/939/331
f 658/927/319 657/926/318 675/944/336 674/943/335
f 664/933/325 663/932/324 666/960/327 665/949/326
f 662/931/323 661/930/322 676/947/337 675/961/336
f 668/953/329 667/962/328 670/939/331 669/938/330
f 672/941/333 671/940/332 674/963/335 673/950/334
f 681/964/1 682/965/1 683/966/1 684/967/1
f 683/966/5 685/968/5 686/969/5 684/967/5
f 684/967/2 686/969/2 681/970/2
f 682/971/4 685/968/4 683/966/4
f 649/924/9 687/972/3 688/973/3 656/925/9
f 436/609/1 430/597/1 432/600/1 440/614/1
f 438/611/195 441/615/196 433/601/196 427/593/195

# 603 faces
